<?xml version="1.0" encoding="utf-8"?>
<!-- Generator: Adobe Illustrator 25.3.1, SVG Export Plug-In . SVG Version: 6.00 Build 0)  -->
<svg version="1.1" id="Capa_1" xmlns="http://www.w3.org/2000/svg" xmlns:xlink="http://www.w3.org/1999/xlink" x="0px" y="0px"
	 viewBox="0 0 1919.5 2953.9" style="enable-background:new 0 0 1919.5 2953.9;" xml:space="preserve">
<style type="text/css">
	.st0{opacity:0.4;fill:#686CAA;}
	.st1{opacity:0.25;}
	.st2{fill:#FFFFFF;}
	.st3{opacity:0.15;}
	.st4{fill:#F4B8C2;}
	.st5{fill:#686CAA;}
</style>
<g id="Capa_2_1_">
	<g id="Rosa">
		<path class="st0" d="M1366.2,857.5c54.3-20.7,110.3-32,159.4-38c12.6-5.8,19.6-9.1,19.6-9.1c160.3-102,240.8-82.3,240.8-82.3
			c50.6-3.6,94.7,2.4,133,14.7V0H0v663.7c317.9,121.7,560.8,151,560.8,151C1069.3,910.9,1366.2,857.5,1366.2,857.5z"/>
		<g class="st1">
			<path class="st2" d="M294.8,49.7c137.2,5,244.7,109.6,240.1,233.4S415.5,503.2,278.3,498.2S33.6,388.7,38.2,264.8
				S157.6,44.7,294.8,49.7z"/>
			<path class="st2" d="M454.9,796.5c53.7-19.8,112.5-36.8,112.5-36.8C973.7,591.3,1094,388.1,1094,388.1
				c88.2-80.2,32.1-96.2,32.1-96.2c-69.5-45.4-173.7,45.5-173.7,45.5C639.5,559.2,275.9,679.5,275.9,679.5
				c-42.4,2.4-79.3,19.3-110.2,42C284.5,759.1,385,782.6,454.9,796.5z"/>
			<path class="st2" d="M859.7,858.1c-37.6-30.1-89.7-52.6-160.4-47.6c0,0-27.7-6.7-82.8,14.2C704.6,840,785.8,850.8,859.7,858.1z"
				/>
		</g>
		<g class="st3">
			<g>
				<path class="st4" d="M1919.5,924.3c-47.6-35.1-104.8-54.9-164-56.6c-164.5-5.2-303.7,126.1-310.9,293.2s120.4,306.7,284.9,311.9
					c70.8,2.2,137-20.9,189.9-61.2L1919.5,924.3z"/>
				<path class="st4" d="M1919.5,1611.9c-23.1,4.1-45.9,9.8-68.3,17c0,0-219,33.7-594-27c0,0-202.7-20.9-458.9-110.5
					c0,0-158.4-20.6-105.6,110.5c0,0,170.9,170.9,972.2,165.6c0,0,114.3-1,254.6-18.2L1919.5,1611.9z"/>
				<path class="st4" d="M1919.5,1841.2c-34.8,2.7-77.3,7.3-128.8,14.6c0,0-286.5,33.8-645.3-2c0,0-116.5-28.9-219,278.3
					c0,0-97.8,291.2-97.8,436.5c0,0,14,167.2-25.6,191.2c0,0-55.9,53.7-25.6,133.4c0,0,58.2,45.8,130.5-35.8
					c0,0,116.5-69.7,163.1-416.1c0,0,58.2-394.2,333.1-434.1c0,0,139.8-39.8,414.7-21.9c0,0,41,3,100.9-5.9L1919.5,1841.2z"/>
			</g>
		</g>
	</g>
</g>
<path class="st5" d="M-362.7,300.6c-2.4,65-48.6,116-103.3,114c-54.7-2-97.1-56.3-94.7-121.3c2.4-65,48.6-116,103.3-114
	C-402.7,181.3-360.3,235.6-362.7,300.6z"/>
<path class="st4" d="M-164.3,171.5c53,1.9,94.5,42.3,92.7,90.1c-1.8,47.8-46.1,85-99.1,83.1c-53-1.9-94.5-42.3-92.7-90.1
	C-261.6,206.7-217.2,169.5-164.3,171.5z"/>
</svg>
