<?xml version="1.0" encoding="utf-8"?>
<!-- Generator: Adobe Illustrator 25.3.1, SVG Export Plug-In . SVG Version: 6.00 Build 0)  -->
<svg version="1.1" id="Capa_1" xmlns="http://www.w3.org/2000/svg" xmlns:xlink="http://www.w3.org/1999/xlink" x="0px" y="0px"
	 viewBox="0 0 1920 900" style="enable-background:new 0 0 1920 900;" xml:space="preserve">
<style type="text/css">
	.st0{fill:#686CAA;}
	.st1{opacity:4.000000e-02;}
	.st2{fill:#FFFFFF;}
</style>
<rect x="0.5" y="0.5" class="st0" width="1919" height="899"/>
<path d="M1919,1v898H1V1H1919 M1920,0H0v900h1920V0z"/>
<g class="st1">
	<path class="st2" d="M1920,0h-132.1c-8.4,20.1-13.1,41.6-13.8,63.4c-3.2,86,53,157.9,125.3,160.5c6.9,0.3,13.8-0.1,20.6-1.1V0z"/>
	<path class="st2" d="M1920,307.8c-41.3,2.7-120,3.1-228.4-17.4c0,0-89.2-10.7-201.9-56.9c0,0-69.7-10.6-46.5,56.9
		c0,0,75.2,88,427.6,85.2c0,0,19.5-0.2,49.1-2.5V307.8z"/>
	<path class="st2" d="M1642.4,420c0,0-51.2-14.9-96.3,143.2c0,0-43,149.9-43,224.6c0,0,6.2,86.1-11.3,98.4
		c-3.4,4.2-6.3,8.8-8.4,13.7h80.8c15.8-30.7,34.8-84.8,45.4-177.7c0,0,25.6-202.9,146.5-223.4c0,0,55.2-18.4,163.8-12.5v-64.6
		C1892.8,425,1779.6,436.1,1642.4,420z"/>
</g>
</svg>
