<svg xmlns="http://www.w3.org/2000/svg" viewBox="0 0 1920 900"><defs><style>.cls-1{fill:#f4b8c2;opacity:0.6;}.cls-2{opacity:0.25;}.cls-3{fill:#fff;}</style></defs><g id="Capa_2" data-name="Capa 2"><g id="Rosa"><path class="cls-1" d="M1366.66,858c54.28-20.73,110.26-32,159.43-38,12.59-5.79,19.6-9.06,19.6-9.06C1706,709,1786.54,728.64,1786.54,728.64c50.56-3.6,94.65,2.43,133,14.67V.5H.5V664.19c317.85,121.69,560.82,151,560.82,151C1069.79,911.42,1366.66,858,1366.66,858Z"/><path d="M1919,1V899H1V1H1919m1-1H0V900H1920Z"/><g class="cls-2"><path class="cls-3" d="M295.26,50.19c137.17,5,244.68,109.55,240.11,233.35S416,503.7,278.8,498.73,34.12,389.21,38.69,265.33,158.11,45.18,295.26,50.19Z"/><path class="cls-3" d="M455.38,797.05c53.66-19.76,112.46-36.82,112.46-36.82,406.38-168.43,526.69-371.65,526.69-371.65,88.22-80.2,32.07-96.24,32.07-96.24-69.53-45.44-173.74,45.45-173.74,45.45C640,559.7,276.38,680.05,276.38,680.05c-42.42,2.37-79.3,19.27-110.24,42C285,759.57,385.49,783.06,455.38,797.05Z"/><path class="cls-3" d="M860.2,858.62C822.62,828.53,770.47,806,699.79,811c0,0-27.67-6.72-82.83,14.22C705.07,840.53,786.31,851.27,860.2,858.62Z"/></g></g></g></svg>