<svg xmlns="http://www.w3.org/2000/svg" viewBox="0 0 1919 1581"><defs><style>.cls-1,.cls-5{fill:#686caa;}.cls-1{isolation:isolate;opacity:0.4;}.cls-2{opacity:0.25;}.cls-3{fill:#fff;}.cls-4{opacity:0.15;}</style></defs><g id="Capa_2" data-name="Capa 2"><g id="Capa_1-2" data-name="Capa 1"><path class="cls-1" d="M1366.16,857.54c54.28-20.73,110.26-32,159.43-38,12.59-5.79,19.6-9.06,19.6-9.06,160.33-102,240.81-82.34,240.81-82.34,50.56-3.6,94.65,2.43,133,14.67V0H0V663.69c317.85,121.69,560.82,151,560.82,151C1069.29,910.92,1366.16,857.54,1366.16,857.54Z"/><g class="cls-2"><path class="cls-3" d="M294.76,49.69c137.17,5,244.68,109.55,240.11,233.35S415.5,503.2,278.3,498.23,33.62,388.71,38.19,264.83,157.61,44.68,294.76,49.69Z"/><path class="cls-3" d="M454.88,796.55c53.66-19.76,112.46-36.82,112.46-36.82C973.72,591.3,1094,388.08,1094,388.08c88.22-80.2,32.07-96.24,32.07-96.24-69.53-45.44-173.74,45.45-173.74,45.45C639.52,559.2,275.88,679.55,275.88,679.55c-42.42,2.37-79.3,19.27-110.24,42C284.5,759.07,385,782.56,454.88,796.55Z"/><path class="cls-3" d="M859.7,858.12C822.12,828,770,805.5,699.29,810.53c0,0-27.67-6.72-82.83,14.22C704.57,840,785.81,850.77,859.7,858.12Z"/></g><g class="cls-4"><path class="cls-5" d="M1812.44,927.71c-2.32,63.23-47.34,112.9-100.54,110.94s-94.46-54.78-92.15-118,47.33-112.88,100.54-110.93S1814.75,864.49,1812.44,927.71Z"/><path class="cls-5" d="M1410.69,1045.72s-51.24-7.8-34.16,41.81c0,0,55.26,64.68,314.45,62.67,0,0,103.47-1,176.8-30.14,0,0,37.19-22.09,23.12-43.19,0,0-3.28-13.06-23.61,1.25,0,0-9,6-42.2,9.41,0,0-38.43-3.29-73.84,10.23,0,0-70.82,12.74-192.13-10.23C1559.12,1087.53,1493.57,1079.63,1410.69,1045.72Z"/><path class="cls-5" d="M1523,1182.86s-37.67-10.93-70.82,105.29c0,0-31.64,110.19-31.64,165.19,0,0,4.52,63.28-8.29,72.34,0,0-18.09,20.34-8.29,50.47,0,0,18.84,17.34,42.19-13.56,0,0,37.67-26.37,52.74-157.47,0,0,18.84-149.18,107.75-164.26,0,0,45.21-15.06,134.12-8.28,0,0,43.7,3.77,88.15-22.6,0,0,16.57-18.09-7.54-30.89,0,0-16.57-7.53-89.66,4.52C1731.66,1183.61,1639,1196.42,1523,1182.86Z"/></g></g></g></svg>