<svg xmlns="http://www.w3.org/2000/svg" viewBox="0 0 23 24.77"><defs><style>.cls-1{fill:#fff;}</style></defs><g id="Capa_2" data-name="Capa 2"><g id="Capa_1-2" data-name="Capa 1"><path class="cls-1" d="M12.13.26a.88.88,0,0,0-1.25,0h0L.26,10.88A.85.85,0,0,0,0,11.5V23.89a.89.89,0,0,0,.88.88h8a.89.89,0,0,0,.88-.88V16.81h3.54v7.08a.89.89,0,0,0,.88.88h8a.89.89,0,0,0,.88-.88V11.5a.85.85,0,0,0-.26-.62l-2.39-2.4V2.66a.89.89,0,0,0-.89-.89H17.69a.88.88,0,0,0-.88.89V4.94ZM1.77,23V11.87L11.5,2.14l9.73,9.73V23H15V15.92a.89.89,0,0,0-.89-.88H8.85a.89.89,0,0,0-.89.88V23Z"/></g></g></svg>