<svg xmlns="http://www.w3.org/2000/svg" viewBox="0 0 23 28.75"><defs><style>.cls-1{fill:#fff;}</style></defs><g id="Capa_2" data-name="Capa 2"><g id="Capa_1-2" data-name="Capa 1"><path class="cls-1" d="M11.5,1.92A9.58,9.58,0,0,0,1.92,11.5v1.92H3.83a1.91,1.91,0,0,1,1.92,1.91v5.75A1.92,1.92,0,0,1,3.83,23H1.92A1.92,1.92,0,0,1,0,21.08V11.5a11.5,11.5,0,0,1,23,0V23a4.79,4.79,0,0,1-4.79,4.79H14.12a1.93,1.93,0,0,1-1.66,1H10.54a1.92,1.92,0,1,1,0-3.83h1.92a1.91,1.91,0,0,1,1.66,1h4.09A2.87,2.87,0,0,0,21.08,23H19.17a1.92,1.92,0,0,1-1.92-1.92V15.33a1.91,1.91,0,0,1,1.92-1.91h1.91V11.5A9.58,9.58,0,0,0,11.5,1.92Z"/></g></g></svg>