<svg xmlns="http://www.w3.org/2000/svg" viewBox="0 0 56.03 56.03"><defs><style>.cls-1,.cls-2{fill:#f4b8c2;}.cls-2{opacity:0.4;}.cls-3{fill:#fff;}</style></defs><g id="Capa_2" data-name="Capa 2"><g id="Capa_3" data-name="Capa 3"><g id="Capa_1-2" data-name="Capa 1"><path id="Trazado_168" data-name="Trazado 168" class="cls-1" d="M.55,33.08,8.63,7.91A11.39,11.39,0,0,1,23,.55h0L48.12,8.63A11.38,11.38,0,0,1,55.48,23h0L47.4,48.12a11.37,11.37,0,0,1-14.32,7.36h0L7.91,47.4A11.38,11.38,0,0,1,.55,33.08Z"/><path id="Trazado_167" data-name="Trazado 167" class="cls-2" d="M14.8,3.42H41.23A11.39,11.39,0,0,1,52.62,14.81h0V41.24A11.39,11.39,0,0,1,41.23,52.63H14.8A11.39,11.39,0,0,1,3.41,41.24h0V14.81A11.39,11.39,0,0,1,14.8,3.42Z"/><path id="Trazado_162" data-name="Trazado 162" class="cls-3" d="M33.14,31.14h-5V44.78H20.74V31.14H17.22V24.85h3.52V20.78a7,7,0,0,1,6.37-7.48,6.73,6.73,0,0,1,1.1,0H33.7v6.11h-4a1.5,1.5,0,0,0-1.58,1.43,1.41,1.41,0,0,0,0,.29v3.7h5.64Z"/></g></g></g></svg>