<svg xmlns="http://www.w3.org/2000/svg" viewBox="0 0 56.03 56.03"><defs><style>.cls-1,.cls-2{fill:#f4b8c2;}.cls-2{opacity:0.4;}.cls-3{fill:#fff;}</style></defs><g id="Capa_2" data-name="Capa 2"><g id="Capa_3" data-name="Capa 3"><path id="Trazado_169" data-name="Trazado 169" class="cls-1" d="M.55,33.08,8.63,7.91A11.39,11.39,0,0,1,23,.55h0L48.12,8.63A11.38,11.38,0,0,1,55.48,23h0L47.4,48.12a11.37,11.37,0,0,1-14.32,7.36h0L7.91,47.4A11.38,11.38,0,0,1,.55,33.08Z"/><path id="Trazado_170" data-name="Trazado 170" class="cls-2" d="M14.8,3.42H41.23A11.39,11.39,0,0,1,52.62,14.81h0V41.24A11.39,11.39,0,0,1,41.23,52.63H14.8A11.39,11.39,0,0,1,3.41,41.24h0V14.81A11.39,11.39,0,0,1,14.8,3.42Z"/><path id="Trazado_163" data-name="Trazado 163" class="cls-3" d="M35.22,12H20.81A8.87,8.87,0,0,0,12,20.82V35.23a8.86,8.86,0,0,0,8.86,8.85H35.22a8.85,8.85,0,0,0,8.85-8.85V20.82A8.86,8.86,0,0,0,35.22,12Zm6.26,23.21a6.29,6.29,0,0,1-6.26,6.33H20.84a6.3,6.3,0,0,1-6.29-6.3V20.85a6.29,6.29,0,0,1,6.28-6.3H35.16a6.3,6.3,0,0,1,6.29,6.3h0Z"/><path id="Trazado_164" data-name="Trazado 164" class="cls-3" d="M28,19.55A8.47,8.47,0,1,0,36.48,28h0A8.48,8.48,0,0,0,28,19.55Zm0,14A5.53,5.53,0,1,1,33.54,28h0A5.53,5.53,0,0,1,28,33.55Z"/><path id="Trazado_165" data-name="Trazado 165" class="cls-3" d="M38.67,19.26a1.9,1.9,0,1,1-1.91-1.89h0A1.89,1.89,0,0,1,38.67,19.26Z"/></g></g></svg>