<svg xmlns="http://www.w3.org/2000/svg" viewBox="0 0 104.89 87.1"><defs><style>.cls-1{fill:#fff;}</style></defs><g id="Capa_2" data-name="Capa 2"><g id="Capa_1-2" data-name="Capa 1"><path class="cls-1" d="M45.72,13.08c-.24,6.58-4.92,11.75-10.46,11.55s-9.83-5.7-9.59-12.28S30.6.6,36.13.81,46,6.51,45.72,13.08Z"/><path class="cls-1" d="M65.81,0c5.36.19,9.56,4.28,9.39,9.12s-4.67,8.61-10,8.41-9.56-4.28-9.38-9.12S60.45-.19,65.81,0Z"/><path class="cls-1" d="M58.38,34.25s-3.55,1.36-2.09-2.4c0,0,3.14-6.9,8.78-7.22A113.65,113.65,0,0,0,91.52,11.25s4.07-3.55,6.79-1.77c0,0,2.2.62-1.25,3.76,0,0-4.71,7.94-20.59,14.53,0,0-3.25.94-5.54,1.88,0,0-6.38,1.25-8.47,2.93Z"/><path class="cls-1" d="M60.47,38.12s-2.93.94-1.88,3c0,0,0,2.19,4.7.94l3.24-1.36S77.09,36.34,82.21,39c0,0,2.51,0,4.29,5.13,0,0,4,8.57,7.42,11.7,0,0,4.18,6.9,5.54,10.56,0,0,1.05,4.5,3.24,5.12,0,0,4.92-.62,0-13.38l-5.43-8.81S92,40,91.21,36.34c0,0-2.23-7.11-9.59-6.59,0,0-2.14-.52-6.42,2.2C75.2,32,66,36.24,60.47,38.12Z"/><path class="cls-1" d="M3.92,25.36s-5.33-.81-3.56,4.35c0,0,5.75,6.73,32.72,6.53,0,0,10.77-.11,18.4-3.14,0,0,3.87-2.3,2.41-4.5,0,0-.35-1.35-2.46.14,0,0-.94.62-4.39,1a19.72,19.72,0,0,0-7.69,1.07s-7.36,1.32-20-1.07A66,66,0,0,1,3.92,25.36Z"/><path class="cls-1" d="M15.6,39.63s-3.92-1.13-7.37,11c0,0-3.29,11.47-3.29,17.19,0,0,.47,6.58-.87,7.53a5.56,5.56,0,0,0-.86,5.25s2,1.8,4.39-1.41c0,0,3.92-2.75,5.49-16.39,0,0,2-15.52,11.21-17.09,0,0,4.71-1.57,14-.86a16.92,16.92,0,0,0,9.17-2.35s1.72-1.89-.78-3.22c0,0-1.73-.78-9.33.47A95.5,95.5,0,0,1,15.6,39.63Z"/><path class="cls-1" d="M21.8,74.32H18.54v4.5H16.37V68.16H21.8V70H18.54v2.49H21.8Z"/><path class="cls-1" d="M31.15,74.67a4.59,4.59,0,0,1-1,3.25,3.89,3.89,0,0,1-3,1.13,3.86,3.86,0,0,1-3-1.16,4.56,4.56,0,0,1-1.06-3.22V68.16h2.24V75a2.29,2.29,0,0,0,.46,1.56,1.68,1.68,0,0,0,1.35.53,1.74,1.74,0,0,0,1.37-.51A2.42,2.42,0,0,0,28.91,75V68.16h2.24Z"/><path class="cls-1" d="M42.26,78.82H40.14L35,71.62v7.2H32.85V68.16H35l5.17,7.16V68.16h2.12Z"/><path class="cls-1" d="M52.22,73.5a5,5,0,0,1-1.57,3.92,6.37,6.37,0,0,1-4.39,1.4H43.88V68.16h2.21a6.72,6.72,0,0,1,4.55,1.37A5,5,0,0,1,52.22,73.5Zm-2.26,0a3.55,3.55,0,0,0-.89-2.57,3.31,3.31,0,0,0-2.5-.93H46v7h.53a3.34,3.34,0,0,0,2.5-.91A3.56,3.56,0,0,0,50,73.49Z"/><path class="cls-1" d="M62.22,78.82H59.8l-.72-2.36H55.26l-.73,2.36H52.11l3.77-10.66h2.58Zm-3.65-4.06-1.41-4.54-1.39,4.54Z"/><path class="cls-1" d="M70.36,78.24a4.3,4.3,0,0,1-1.31.56,5.86,5.86,0,0,1-1.56.25,5.24,5.24,0,0,1-3.95-1.51,5.65,5.65,0,0,1-1.44-4.07,5.47,5.47,0,0,1,1.49-4,5.21,5.21,0,0,1,3.94-1.56,6.78,6.78,0,0,1,1.59.16,4,4,0,0,1,1.24.54v2.31a4.17,4.17,0,0,0-1.25-.74,3.7,3.7,0,0,0-1.37-.26,3.28,3.28,0,0,0-2.47,1,3.6,3.6,0,0,0-.92,2.57,3.83,3.83,0,0,0,.84,2.61,3,3,0,0,0,2.33,1,4.12,4.12,0,0,0,1.58-.29,3.76,3.76,0,0,0,1.26-.87Z"/><path class="cls-1" d="M73.62,78.82H71.46V68.16h2.16Z"/><path class="cls-1" d="M85.73,73.49a5.46,5.46,0,0,1-1.57,4,5.57,5.57,0,0,1-7.79,0,5.78,5.78,0,0,1,0-7.94,5.57,5.57,0,0,1,7.79,0A5.44,5.44,0,0,1,85.73,73.49Zm-2.24,0a3.59,3.59,0,0,0-.9-2.53,3.26,3.26,0,0,0-4.66,0,4,4,0,0,0,0,5.05,3.24,3.24,0,0,0,4.66,0A3.57,3.57,0,0,0,83.49,73.49Z"/><path class="cls-1" d="M96.33,78.82H94.2L89,71.62v7.2H86.91V68.16H89l5.17,7.16V68.16h2.13Z"/><path class="cls-1" d="M18.28,83.31A2.11,2.11,0,0,1,17.64,85a2.46,2.46,0,0,1-1.77.59h-1v-4.5h.9a2.69,2.69,0,0,1,1.84.58A2.15,2.15,0,0,1,18.28,83.31Zm-.92,0A1.53,1.53,0,0,0,17,82.22a1.31,1.31,0,0,0-1-.39h-.21v3H16a1.31,1.31,0,0,0,1-.39A1.54,1.54,0,0,0,17.36,83.3Z"/><path class="cls-1" d="M21.59,84.08a1.58,1.58,0,0,1-.43,1.12,1.56,1.56,0,0,1-2.19,0,1.55,1.55,0,0,1-.44-1.12A1.52,1.52,0,0,1,19,83a1.45,1.45,0,0,1,1.1-.44,1.49,1.49,0,0,1,1.09.44A1.57,1.57,0,0,1,21.59,84.08Zm-.85,0a.88.88,0,0,0-.19-.58.64.64,0,0,0-.49-.23.59.59,0,0,0-.49.23.9.9,0,0,0-.19.58,1,1,0,0,0,.19.6.62.62,0,0,0,.49.23.61.61,0,0,0,.5-.23A.93.93,0,0,0,20.74,84.08Z"/><path class="cls-1" d="M24.63,85.55H23.8V83.83a.87.87,0,0,0-.1-.49.36.36,0,0,0-.32-.14.47.47,0,0,0-.4.22,1.13,1.13,0,0,0-.15.63v1.5H22V82.62h.84V83a.78.78,0,0,1,.35-.32,1.13,1.13,0,0,1,.54-.11.8.8,0,0,1,.68.3,1.41,1.41,0,0,1,.23.89Z"/><path class="cls-1" d="M28,85.55h-.83v-.33a.92.92,0,0,1-.33.32,1,1,0,0,1-.46.11,1.21,1.21,0,0,1-1-.44,1.88,1.88,0,0,1,0-2.24,1.18,1.18,0,0,1,1-.44.92.92,0,0,1,.48.11.69.69,0,0,1,.31.32V80.63H28Zm-.83-1.46A1,1,0,0,0,27,83.5a.58.58,0,0,0-.46-.23.56.56,0,0,0-.45.23,1,1,0,0,0,0,1.17.57.57,0,0,0,.46.24.55.55,0,0,0,.46-.24A.88.88,0,0,0,27.16,84.09Z"/><path class="cls-1" d="M31.24,84.08v.16a.31.31,0,0,1,0,.1h-2a.82.82,0,0,0,.24.45.55.55,0,0,0,.4.18.75.75,0,0,0,.36-.1.67.67,0,0,0,.23-.27l.67.33a1.17,1.17,0,0,1-.5.53,1.5,1.5,0,0,1-.78.19,1.39,1.39,0,0,1-1.05-.43,1.64,1.64,0,0,1-.39-1.14,1.55,1.55,0,0,1,.41-1.1,1.39,1.39,0,0,1,2,0A1.6,1.6,0,0,1,31.24,84.08Zm-.83-.25a.89.89,0,0,0-.21-.46.53.53,0,0,0-.77,0,.79.79,0,0,0-.21.45Z"/><path class="cls-1" d="M34.67,83.31h-.41v2.24h-.83V83.31H33.1v-.69h.33v-1h.83v1h.41Z"/><path class="cls-1" d="M37.58,84.24a1.54,1.54,0,0,1-.32,1.07,1.32,1.32,0,0,1-1,.34,1.33,1.33,0,0,1-1-.33,1.58,1.58,0,0,1-.3-1.08V82.62h.83v1.71a.68.68,0,0,0,.12.44.46.46,0,0,0,.36.14.41.41,0,0,0,.35-.15.67.67,0,0,0,.12-.43V82.62h.84Z"/><path class="cls-1" d="M42.51,84.08v.16a.38.38,0,0,0,0,.1h-2a.88.88,0,0,0,.23.45.57.57,0,0,0,.41.18.68.68,0,0,0,.35-.1.62.62,0,0,0,.24-.27l.67.33a1.22,1.22,0,0,1-.5.53,1.5,1.5,0,0,1-.78.19,1.37,1.37,0,0,1-1-.43,1.65,1.65,0,0,1-.4-1.14,1.56,1.56,0,0,1,.42-1.1,1.31,1.31,0,0,1,1-.45,1.28,1.28,0,0,1,1,.44A1.56,1.56,0,0,1,42.51,84.08Zm-.83-.25a1,1,0,0,0-.21-.46.53.53,0,0,0-.39-.16.47.47,0,0,0-.38.17.79.79,0,0,0-.21.45Z"/><path class="cls-1" d="M44.83,82.57l-.15.87a.47.47,0,0,0-.15-.06l-.14,0a.59.59,0,0,0-.51.23,1.17,1.17,0,0,0-.17.69v1.27h-.83V82.62h.83v.61a1.05,1.05,0,0,1,.31-.54.8.8,0,0,1,.55-.16h.14Z"/><path class="cls-1" d="M47.61,84.08v.16s0,.07,0,.1h-2a.82.82,0,0,0,.24.45.55.55,0,0,0,.4.18.68.68,0,0,0,.35-.1.62.62,0,0,0,.24-.27l.67.33a1.17,1.17,0,0,1-.5.53,1.5,1.5,0,0,1-.78.19,1.37,1.37,0,0,1-1.05-.43,1.64,1.64,0,0,1-.39-1.14,1.55,1.55,0,0,1,.41-1.1,1.31,1.31,0,0,1,1-.45,1.28,1.28,0,0,1,1,.44A1.56,1.56,0,0,1,47.61,84.08Zm-.83-.25a1,1,0,0,0-.21-.46.53.53,0,0,0-.39-.16.48.48,0,0,0-.38.17.79.79,0,0,0-.21.45Z"/><path class="cls-1" d="M48.26,84.79a.51.51,0,0,0,.22.18.68.68,0,0,0,.31.08.45.45,0,0,0,.27-.07.23.23,0,0,0,.1-.2.28.28,0,0,0-.12-.23,2,2,0,0,0-.41-.2A1.46,1.46,0,0,1,48,84a.92.92,0,0,1,.13-1.21,1.31,1.31,0,0,1,.84-.24,1.48,1.48,0,0,1,.49.08.89.89,0,0,1,.37.26l-.39.47a.68.68,0,0,0-.23-.17.6.6,0,0,0-.24,0,.41.41,0,0,0-.27.07.24.24,0,0,0-.1.18.3.3,0,0,0,.13.25,1.13,1.13,0,0,0,.4.2,1.24,1.24,0,0,1,.59.36.84.84,0,0,1,.2.54.81.81,0,0,1-.31.68,1.33,1.33,0,0,1-.86.25,1.48,1.48,0,0,1-.61-.12.88.88,0,0,1-.41-.31Z"/><path class="cls-1" d="M53,85.55h-.84V80.63H53Z"/><path class="cls-1" d="M56.44,84.08A1.54,1.54,0,0,1,56,85.2a1.45,1.45,0,0,1-1.09.45,1.47,1.47,0,0,1-1.1-.45,1.54,1.54,0,0,1-.43-1.12A1.52,1.52,0,0,1,53.82,83a1.45,1.45,0,0,1,1.1-.44A1.48,1.48,0,0,1,56,83,1.53,1.53,0,0,1,56.44,84.08Zm-.84,0a.89.89,0,0,0-.2-.58.62.62,0,0,0-.49-.23.59.59,0,0,0-.49.23.9.9,0,0,0-.19.58,1,1,0,0,0,.19.6.64.64,0,0,0,.49.23.61.61,0,0,0,.5-.23A.94.94,0,0,0,55.6,84.08Z"/><path class="cls-1" d="M62.77,85.55h-.83V83.83a1,1,0,0,0-.08-.5.3.3,0,0,0-.28-.13.4.4,0,0,0-.36.22,1.23,1.23,0,0,0-.13.63v1.5h-.83V83.83a1.1,1.1,0,0,0-.08-.5.3.3,0,0,0-.28-.13.4.4,0,0,0-.36.22,1.23,1.23,0,0,0-.13.63v1.5h-.84V82.62h.84V83a.75.75,0,0,1,.33-.33,1.06,1.06,0,0,1,.5-.1.88.88,0,0,1,.48.12A.75.75,0,0,1,61,83a.94.94,0,0,1,.37-.37,1.11,1.11,0,0,1,.54-.13.76.76,0,0,1,.65.27,1.49,1.49,0,0,1,.2.86Z"/><path class="cls-1" d="M66.13,85.55h-.84v-.33a.82.82,0,0,1-.32.32,1,1,0,0,1-.46.11,1.23,1.23,0,0,1-1-.44,1.88,1.88,0,0,1,0-2.24,1.2,1.2,0,0,1,1-.44,1,1,0,0,1,.48.11.62.62,0,0,1,.3.32v-.34h.84Zm-.84-1.46a1,1,0,0,0-.18-.59.58.58,0,0,0-.46-.23.59.59,0,0,0-.46.23,1,1,0,0,0-.18.59.91.91,0,0,0,.18.58.55.55,0,0,0,.46.24.56.56,0,0,0,.46-.24A.93.93,0,0,0,65.29,84.09Z"/><path class="cls-1" d="M67,84.79a.62.62,0,0,0,.23.18.67.67,0,0,0,.3.08.47.47,0,0,0,.28-.07.26.26,0,0,0,.1-.2.27.27,0,0,0-.13-.23,1.72,1.72,0,0,0-.41-.2,1.41,1.41,0,0,1-.58-.37.81.81,0,0,1-.18-.55.78.78,0,0,1,.31-.66,1.3,1.3,0,0,1,.83-.24,1.54,1.54,0,0,1,.5.08,1,1,0,0,1,.37.26l-.39.47a.79.79,0,0,0-.23-.17.62.62,0,0,0-.25,0,.4.4,0,0,0-.26.07.21.21,0,0,0-.1.18.32.32,0,0,0,.12.25,1.19,1.19,0,0,0,.41.2,1.2,1.2,0,0,1,.58.36.8.8,0,0,1,.21.54.81.81,0,0,1-.32.68,1.3,1.3,0,0,1-.86.25,1.51,1.51,0,0,1-.61-.12.93.93,0,0,1-.41-.31Z"/><path class="cls-1" d="M71.84,81.44a.46.46,0,0,1-.14.34.44.44,0,0,1-.34.14.42.42,0,0,1-.34-.14.43.43,0,0,1-.15-.34A.45.45,0,0,1,71,81.1a.42.42,0,0,1,.34-.14.44.44,0,0,1,.34.14A.48.48,0,0,1,71.84,81.44Zm-.07,4.11h-.83V82.62h.83Z"/><path class="cls-1" d="M76.61,85.55h-.83V83.83a1.1,1.1,0,0,0-.08-.5.3.3,0,0,0-.29-.13.39.39,0,0,0-.35.22,1.23,1.23,0,0,0-.13.63v1.5H74.1V83.83a1,1,0,0,0-.09-.5.29.29,0,0,0-.28-.13.4.4,0,0,0-.36.22,1.35,1.35,0,0,0-.13.63v1.5h-.83V82.62h.83V83a.81.81,0,0,1,.33-.33,1.09,1.09,0,0,1,.5-.1.91.91,0,0,1,.49.12.73.73,0,0,1,.28.38,1,1,0,0,1,.38-.37,1.07,1.07,0,0,1,.53-.13.75.75,0,0,1,.65.27,1.41,1.41,0,0,1,.21.86Z"/><path class="cls-1" d="M80.16,84.08a1.73,1.73,0,0,1-.37,1.13,1.23,1.23,0,0,1-1,.44,1,1,0,0,1-.48-.12.64.64,0,0,1-.3-.31V87.1h-.84V82.62H78V83a.82.82,0,0,1,.32-.32.9.9,0,0,1,.46-.11,1.22,1.22,0,0,1,1,.43A1.72,1.72,0,0,1,80.16,84.08Zm-.84,0a.93.93,0,0,0-.18-.58.6.6,0,0,0-.47-.23.58.58,0,0,0-.46.23.93.93,0,0,0-.18.58.94.94,0,0,0,.18.59.56.56,0,0,0,.92,0A.91.91,0,0,0,79.32,84.08Z"/><path class="cls-1" d="M83.42,84.08A1.54,1.54,0,0,1,83,85.2a1.55,1.55,0,0,1-2.18,0,1.65,1.65,0,0,1,0-2.23,1.46,1.46,0,0,1,1.1-.44A1.48,1.48,0,0,1,83,83,1.53,1.53,0,0,1,83.42,84.08Zm-.84,0a.89.89,0,0,0-.2-.58.62.62,0,0,0-.48-.23.58.58,0,0,0-.49.23.85.85,0,0,0-.19.58.9.9,0,0,0,.19.6.62.62,0,0,0,.49.23.59.59,0,0,0,.49-.23A.88.88,0,0,0,82.58,84.08Z"/><path class="cls-1" d="M85.78,82.57l-.15.87-.14-.06-.15,0a.59.59,0,0,0-.51.23,1.17,1.17,0,0,0-.17.69v1.27h-.83V82.62h.83v.61a1.05,1.05,0,0,1,.31-.54.83.83,0,0,1,.56-.16h.13Z"/><path class="cls-1" d="M87.44,83.31H87v2.24h-.84V83.31h-.33v-.69h.33v-1H87v1h.41Z"/><path class="cls-1" d="M90.51,85.55h-.83v-.33a.92.92,0,0,1-.33.32,1,1,0,0,1-.46.11,1.24,1.24,0,0,1-1-.44,1.88,1.88,0,0,1,0-2.24,1.21,1.21,0,0,1,1-.44,1,1,0,0,1,.48.11.69.69,0,0,1,.31.32v-.34h.83Zm-.83-1.46a1,1,0,0,0-.19-.59.58.58,0,0,0-.46-.23.56.56,0,0,0-.45.23,1,1,0,0,0,0,1.17.56.56,0,0,0,.46.24.55.55,0,0,0,.46-.24A.94.94,0,0,0,89.68,84.09Z"/><path class="cls-1" d="M93.74,85.55h-.82V83.83a.86.86,0,0,0-.11-.49.36.36,0,0,0-.32-.14.45.45,0,0,0-.39.22,1,1,0,0,0-.16.63v1.5h-.83V82.62h.83V83a.78.78,0,0,1,.35-.32,1.13,1.13,0,0,1,.54-.11.8.8,0,0,1,.68.3,1.41,1.41,0,0,1,.23.89Z"/><path class="cls-1" d="M95.66,83.31h-.41v2.24h-.83V83.31h-.33v-.69h.33v-1h.83v1h.41Z"/><path class="cls-1" d="M98.58,84.08v.16s0,.07,0,.1h-2a.82.82,0,0,0,.24.45.55.55,0,0,0,.4.18.75.75,0,0,0,.36-.1.67.67,0,0,0,.23-.27l.67.33a1.17,1.17,0,0,1-.5.53,1.5,1.5,0,0,1-.78.19,1.39,1.39,0,0,1-1.05-.43,1.64,1.64,0,0,1-.39-1.14,1.55,1.55,0,0,1,.41-1.1,1.31,1.31,0,0,1,1-.45,1.28,1.28,0,0,1,1,.44A1.56,1.56,0,0,1,98.58,84.08Zm-.83-.25a.82.82,0,0,0-.21-.46.53.53,0,0,0-.77,0,.79.79,0,0,0-.21.45Z"/><path class="cls-1" d="M29.75,49.84A1.81,1.81,0,0,1,31.57,48H32a1.9,1.9,0,0,1,1.66,1l4.41,7.19,4.43-7.21A1.8,1.8,0,0,1,44.12,48h.4a1.82,1.82,0,0,1,1.83,1.83V63a1.82,1.82,0,1,1-3.63,0V54.75l-3.2,4.93a1.71,1.71,0,0,1-3,0l-3.15-4.86v8.25a1.78,1.78,0,0,1-1.8,1.78,1.76,1.76,0,0,1-1.78-1.78Z"/><path class="cls-1" d="M53,51.47H49.5a1.68,1.68,0,1,1,0-3.36H60.18a1.68,1.68,0,0,1,0,3.36H56.67V63A1.83,1.83,0,0,1,53,63Z"/><path class="cls-1" d="M71.27,57.36a1.58,1.58,0,0,0,0,2.23l1.86,1.64a4.64,4.64,0,0,0,2.4-2.3l-2-1.75A1.71,1.71,0,0,0,71.27,57.36Zm6.87,3.83a8.46,8.46,0,0,1-2.39,2.34l1,.9A1.73,1.73,0,0,0,79,64.29a1.69,1.69,0,0,0-.11-2.45ZM72,61.6a4.5,4.5,0,0,1-1,.1,4.66,4.66,0,0,1-1.59-.27,5.07,5.07,0,0,1-.12-9.57A4.81,4.81,0,0,1,71,51.55a4.5,4.5,0,0,1,1.11.13,5.07,5.07,0,0,1,4,4.94,5,5,0,0,1-.56,2.31l2.59,2.26a8.14,8.14,0,0,0,1.43-4.61A8.56,8.56,0,1,0,71,64.92a8.67,8.67,0,0,0,4.73-1.39l-2.6-2.3A5.23,5.23,0,0,1,72,61.6Z"/></g></g></svg>