<svg xmlns="http://www.w3.org/2000/svg" viewBox="0 0 100.34 111.2"><defs><style>.cls-1{fill:#ee7623;}.cls-2,.cls-4{fill:#aa182c;}.cls-2{fill-rule:evenodd;}.cls-3{fill:#fff;}</style></defs><g id="Capa_2" data-name="Capa 2"><g id="Capa_1-2" data-name="Capa 1"><g id="Capa_2-2" data-name="Capa 2"><g id="Capa_3" data-name="Capa 3"><path id="Trazado_173" data-name="Trazado 173" class="cls-1" d="M84.52,30.7a36,36,0,0,0-5.16-7.45C73.42,16.62,63.16,16,57.56,17L50,19.55l-2.71-2.83s14.41-6.85,25.67-2.38a40.37,40.37,0,0,1,7.89,4.21l-1.15-2L77,12a41.87,41.87,0,0,0-10.6-3.66C57.65,6.63,50,11.57,46.16,15.7l-4.93,6.55-3.46-.17c3.81-8.11,11.2-16,18.58-18,6.21-1.69,6.56-1.36,8.1-1.32l-.8-.35-5-2.21L58,.12a36.29,36.29,0,0,0-9.08,2.6c-8.16,3.56-12,11.93-12.81,18.73l0,8-3.53,1.7S30.74,14.66,38.52,5.38A39.32,39.32,0,0,1,44,0L42.4.36,37.06,1.57,36,2.24a35.55,35.55,0,0,0-5.43,7.07C26,17,28.55,26.94,31.18,32l4.41,6.55L33.72,41.9S22.58,30,23.41,17.9a43.8,43.8,0,0,1,1.1-7.11l-.48.55-3.62,4.14-.85,2a34.88,34.88,0,0,0-.06,8.17c.93,8.83,8.89,15.35,14,17.85l7.65,2.35.56,3.42S25,46.16,19,36.58a44,44,0,0,1-3.37-6.68l-.11,1.22L15,36.61l.17.78a39.34,39.34,0,0,0,4.93,7.26c6.08,7.11,16.12,7.43,21.73,6.53L49.8,49l2.38,2.54s-14.93,7.15-26.12,2.55a43.85,43.85,0,0,1-6.73-3.5l.88,1.51L23,56.87l.56.5a35.76,35.76,0,0,0,8.73,2.87c9.78,1.94,17.35-3.73,21.3-7.82l4.86-5.87L62,46.8S54.42,61.2,42.69,64.25a43.2,43.2,0,0,1-8.3,1.3l1.83.8L41,68.42a36,36,0,0,0,9.78-2.71c8.16-3.53,12-13.1,12.81-18.72l-.05-8L67,37.29S69.32,53.68,61.53,63a43.65,43.65,0,0,1-6,5.82l1.87-.44,5.21-1.18a36,36,0,0,0,6.43-8c4.5-7.67,2.34-17.31-.66-22.68l-4.91-6.82,1.81-3.5c5.66,5,11,16.06,10.47,24.06-.44,6.72-1,7.43-1.77,9.3l1.83-2.09,3.62-4.15,0-.1c.4-2.14.75-4.08.37-10.35-.44-7.12-7.33-15.43-13.72-18L58.49,22.6l-.68-3.9c13.43,2.47,20.68,9.16,23,13a40,40,0,0,1,3.47,7.07l.1-1.12.52-5.49Z"/><path id="Trazado_174" data-name="Trazado 174" class="cls-2" d="M0,90.35H99.88V100.5H0Z"/><path id="Trazado_175" data-name="Trazado 175" class="cls-3" d="M5.88,98.86V96l-2.5-4H5l1.62,2.72L8.19,92H9.77l-2.5,4v2.89Zm11.19,0V93.15h-2V92h5.4v1.17h-2v5.71Zm4.28,0V92h2.9a5,5,0,0,1,1.58.19,1.51,1.51,0,0,1,.79.66,2,2,0,0,1,.3,1.08,1.87,1.87,0,0,1-.44,1.28,2.19,2.19,0,0,1-1.33.63,3.44,3.44,0,0,1,.74.58,7.59,7.59,0,0,1,.77,1.11l.83,1.33H25.83l-1-1.51a8.81,8.81,0,0,0-.73-1A1,1,0,0,0,23.7,96,2.66,2.66,0,0,0,23,96h-.28v2.88Zm1.38-4h1A5.09,5.09,0,0,0,25,94.8a.74.74,0,0,0,.38-.29,1,1,0,0,0,.15-.52.79.79,0,0,0-.71-.83H22.73v1.72Zm11.62,4H32.86l-.59-1.57H29.54L29,98.86H27.52L30.17,92h1.45l2.73,6.88Zm-2.53-2.73-.94-2.54L30,96.13Zm3.26,2.73V92h1.33l2.8,4.61V92h1.27v6.88H39.11l-2.76-4.52v4.52Zm6.5-2.21,1.33-.14a1.66,1.66,0,0,0,.48,1,1.52,1.52,0,0,0,1,.32,1.57,1.57,0,0,0,1-.29.84.84,0,0,0,.33-.66.66.66,0,0,0-.14-.41,1.14,1.14,0,0,0-.49-.3c-.16-.06-.53-.16-1.1-.3a3.63,3.63,0,0,1-1.54-.68A1.82,1.82,0,0,1,43,92.12a3.32,3.32,0,0,1,1.32-.24,2.82,2.82,0,0,1,1.92.57A2,2,0,0,1,46.89,94l-1.38,0a1.22,1.22,0,0,0-.37-.77,1.32,1.32,0,0,0-.88-.23,1.57,1.57,0,0,0-.94.25.51.51,0,0,0-.21.44.53.53,0,0,0,.2.42,3.61,3.61,0,0,0,1.26.46,7,7,0,0,1,1.48.49,1.87,1.87,0,0,1,.75.7,2.11,2.11,0,0,1,.27,1.1,2,2,0,0,1-.32,1.1,1.92,1.92,0,0,1-.92.77,3.75,3.75,0,0,1-1.48.25,2.93,2.93,0,0,1-2-.63,2.65,2.65,0,0,1-.82-1.77Zm6.71,2.21V92H50.5a7.32,7.32,0,0,1,1.62.11,1.73,1.73,0,0,1,1,.67,2.16,2.16,0,0,1,.4,1.32,2.32,2.32,0,0,1-.23,1.07,2,2,0,0,1-.59.69,1.85,1.85,0,0,1-.71.33,8.4,8.4,0,0,1-1.42.09h-.88v2.6Zm1.38-5.71V95.1h.74A3.55,3.55,0,0,0,51.49,95a.89.89,0,0,0,.45-.34.92.92,0,0,0,.15-.54.87.87,0,0,0-.22-.61.9.9,0,0,0-.55-.31,6.44,6.44,0,0,0-1,0Zm10.4,5.71H58.58L58,97.29H55.26l-.57,1.57H53.24L55.89,92h1.45Zm-2.53-2.73-.94-2.54-1,2.54Zm3.26,2.73V92h2.89a5,5,0,0,1,1.59.19,1.51,1.51,0,0,1,.79.66,2,2,0,0,1,.3,1.08,1.87,1.87,0,0,1-.44,1.28,2.16,2.16,0,0,1-1.33.63,3.16,3.16,0,0,1,.73.58,7.66,7.66,0,0,1,.78,1.11l.83,1.33H65.3l-1-1.51a8.81,8.81,0,0,0-.73-1,1,1,0,0,0-.41-.29,2.71,2.71,0,0,0-.69-.08H62.2v2.88Zm1.38-4h1a5.14,5.14,0,0,0,1.24-.08.74.74,0,0,0,.38-.29A.89.89,0,0,0,65,94a.78.78,0,0,0-.7-.83H62.18v1.72Zm5.48,4V92h5v1.17H69v1.52h3.39v1.17H69v1.87h3.79v1.16Zm6.35,0V92h1.32l2.8,4.61V92H79.4v6.88H78l-2.76-4.52v4.52Zm11.21-2.54,1.33.42a3,3,0,0,1-1,1.68,3.13,3.13,0,0,1-4-.39,3.57,3.57,0,0,1-.89-2.56,3.78,3.78,0,0,1,.89-2.65,3,3,0,0,1,2.3-.95,2.82,2.82,0,0,1,2,.75,2.62,2.62,0,0,1,.7,1.27l-1.36.32a1.42,1.42,0,0,0-1.43-1.15,1.52,1.52,0,0,0-1.23.55,2.63,2.63,0,0,0-.47,1.76,2.9,2.9,0,0,0,.46,1.86,1.48,1.48,0,0,0,1.21.55,1.33,1.33,0,0,0,.94-.35,2,2,0,0,0,.57-1.1Zm2.47,2.54V92h1.38v6.88Zm8.83,0H95l-.58-1.57H91.69l-.57,1.57H89.66L92.31,92h1.46l2.72,6.88ZM94,96.13l-.94-2.54-.92,2.54Z"/><path id="Trazado_176" data-name="Trazado 176" class="cls-4" d="M2.09,87.45V80.53H3.78v6.92Zm3,0V80.53H6.92L8.15,82.8c.21.36.4.73.58,1.09s.36.72.52,1.08c0-.52-.05-1-.06-1.47s0-.86,0-1.21V80.53h1.63v6.92H9L7.69,85.12l-.49-.93c-.18-.34-.37-.72-.57-1.13,0,.44,0,.89.07,1.26s0,.73,0,1v2.1Zm6.67-2.29h1.62a1.1,1.1,0,0,0,1.24,1.18,1.49,1.49,0,0,0,.8-.18.56.56,0,0,0,.28-.5.66.66,0,0,0-.07-.3.41.41,0,0,0-.18-.19,5.92,5.92,0,0,0-.89-.32,10.18,10.18,0,0,1-1.2-.45,2.34,2.34,0,0,1-1.08-.78,1.76,1.76,0,0,1-.37-1.13,1.94,1.94,0,0,1,.71-1.57,2.94,2.94,0,0,1,1.92-.59,2.7,2.7,0,0,1,1.87.62,2.1,2.1,0,0,1,.7,1.66H15.53a1,1,0,0,0-.32-.71,1.19,1.19,0,0,0-.79-.23,1.06,1.06,0,0,0-.65.17.51.51,0,0,0-.26.44c0,.31.4.6,1.21.89l.34.11h.06a5.89,5.89,0,0,1,1.56.69,1.77,1.77,0,0,1,.48.64,2.11,2.11,0,0,1,.17.82,1.93,1.93,0,0,1-.76,1.6,3.42,3.42,0,0,1-2.1.58,2.81,2.81,0,0,1-2-.61,2.7,2.7,0,0,1-.75-1.87Zm7.87,2.29V81.93H17.76v-1.4H23.2v1.4H21.32v5.52Zm4.34,0V80.53h1.68v6.92Zm4.32,0V81.93H26.42v-1.4h5.45v1.4H30v5.52Zm4.26-6.91h1.65v4.31a1.6,1.6,0,0,0,.26,1,1.08,1.08,0,0,0,.85.3,1,1,0,0,0,.84-.3,1.6,1.6,0,0,0,.26-1V80.54h1.67v4.1A4.92,4.92,0,0,1,37.93,86a2.08,2.08,0,0,1-.53.89,2.65,2.65,0,0,1-.89.55,3.68,3.68,0,0,1-2.32,0,2.52,2.52,0,0,1-.88-.55,2.12,2.12,0,0,1-.55-.89,4.51,4.51,0,0,1-.16-1.37v-4.1ZM45.16,85A3,3,0,0,1,44.23,87a2.76,2.76,0,0,1-2,.69,3,3,0,0,1-2.32-1,3.72,3.72,0,0,1-.88-2.6A3.85,3.85,0,0,1,40,81.37a3.14,3.14,0,0,1,2.41-1,2.83,2.83,0,0,1,2,.67,2.63,2.63,0,0,1,.89,1.8H43.6a1.21,1.21,0,0,0-.44-.74,1.31,1.31,0,0,0-.85-.25,1.26,1.26,0,0,0-1.11.58,2.74,2.74,0,0,0-.41,1.6,2.81,2.81,0,0,0,.38,1.58,1.3,1.3,0,0,0,1.1.56,1.32,1.32,0,0,0,.9-.29,1.35,1.35,0,0,0,.45-.85Zm1,2.42V80.53h1.68v6.92ZM50.63,84a2.71,2.71,0,0,0,.4,1.62,1.52,1.52,0,0,0,2.13.23,1.58,1.58,0,0,0,.22-.23,3.37,3.37,0,0,0,0-3.23,1.51,1.51,0,0,0-2.12-.23l-.23.23a2.71,2.71,0,0,0-.4,1.62Zm-1.71,0a3.79,3.79,0,0,1,.88-2.64,3.45,3.45,0,0,1,4.82,0,4.4,4.4,0,0,1,0,5.29,3.45,3.45,0,0,1-4.82,0A3.8,3.8,0,0,1,48.92,84Zm7.61,3.45V80.53h1.82l1.24,2.27c.2.36.39.73.57,1.09s.35.72.51,1.08c0-.52,0-1-.05-1.47s0-.86,0-1.21V80.53h1.63v6.92H60.43l-1.29-2.33c-.15-.28-.32-.59-.49-.93s-.37-.71-.57-1.11c0,.45.05.87.07,1.26s0,.73,0,1v2.08Zm8.87-2.7h1.43l-.73-2.37Zm-.16-4.2h1.84l2.3,6.9H67.57l-.39-1.27H65l-.38,1.27H62.85l2.36-6.9Zm4.86,6.9V80.53h1.69v5.4H75v1.52Zm5.6,0V80.53h1.67v6.92ZM80.38,86h.88a1.34,1.34,0,0,0,1.14-.49A2.5,2.5,0,0,0,82.77,84a2.54,2.54,0,0,0-.37-1.52A1.3,1.3,0,0,0,81.26,82h-.88v4Zm-1.7,1.46V80.53h2.8a2.82,2.82,0,0,1,2.24.88A3.74,3.74,0,0,1,84.49,84a3.62,3.62,0,0,1-.8,2.59,3.17,3.17,0,0,1-2.42.89Zm8.64-2.7h1.45L88,82.38l-.7,2.37Zm-.16-4.2H89l2.32,6.9H89.51l-.4-1.26H86.9l-.33,1.26H84.8l2.36-6.9ZM93.65,86h.91a1.33,1.33,0,0,0,1.15-.48,3.37,3.37,0,0,0,0-3A1.33,1.33,0,0,0,94.56,82h-.91v4ZM92,87.45V80.53h2.8a2.79,2.79,0,0,1,2.24.88A3.74,3.74,0,0,1,97.78,84a3.62,3.62,0,0,1-.8,2.59,3.17,3.17,0,0,1-2.43.86Z"/><path id="Trazado_177" data-name="Trazado 177" d="M88.5,111.06H87.31v-2.9a1.67,1.67,0,0,0,0-.39.49.49,0,0,0-.57-.4l-.07,0a1.17,1.17,0,0,0-.61.39.93.93,0,0,0-.3.75v2.52H84.52v-2.9a1.39,1.39,0,0,0-.06-.4.47.47,0,0,0-.57-.37h0a1.22,1.22,0,0,0-.6.37,1,1,0,0,0-.32.79c0,.8,0,1.6,0,2.4v.11H81.73v-4.54h1.18v.81h0l.07-.11a1.66,1.66,0,0,1,1.82-.77,1.08,1.08,0,0,1,.89.91l.07-.09a2,2,0,0,1,.93-.77,1.53,1.53,0,0,1,1.17,0,1,1,0,0,1,.57.8,1.84,1.84,0,0,1,0,.41v3.32Z"/><path id="Trazado_178" data-name="Trazado 178" d="M75.62,109.88v.82a.15.15,0,0,1-.11.15,5.11,5.11,0,0,1-1.28.32,6,6,0,0,1-1.58,0,2.75,2.75,0,0,1-2.29-2.29,4.44,4.44,0,0,1,.09-2,2.6,2.6,0,0,1,2-1.88,5.08,5.08,0,0,1,1.45-.12,9.36,9.36,0,0,1,1.59.22h.07v1l-.13,0a5.88,5.88,0,0,0-1.48-.34,2.47,2.47,0,0,0-.94.07,1.63,1.63,0,0,0-1.11,1,3.14,3.14,0,0,0,0,2.39,1.83,1.83,0,0,0,1.67,1.22,3.83,3.83,0,0,0,2-.39l.11-.05Z"/><path id="Trazado_179" data-name="Trazado 179" d="M93.68,110.05v.81a.06.06,0,0,1,0,.06,4.42,4.42,0,0,1-2.47.13,2.06,2.06,0,0,1-1.56-1.76,3,3,0,0,1,.15-1.56,2,2,0,0,1,1.95-1.32,2.9,2.9,0,0,1,.66.07,1.46,1.46,0,0,1,1.06.91,4.58,4.58,0,0,1,.26,1.64H90.87a1.52,1.52,0,0,0,.15.6,1.17,1.17,0,0,0,1.07.7,3.67,3.67,0,0,0,1.47-.24Zm-1.2-1.72a2.15,2.15,0,0,0-.11-.71.71.71,0,0,0-.91-.4.56.56,0,0,0-.26.17,1.69,1.69,0,0,0-.35.94Z"/><path id="Trazado_180" data-name="Trazado 180" d="M80.43,109H77.64a1.24,1.24,0,0,0,1,1.25A2.85,2.85,0,0,0,80,110.2c.16,0,.31-.09.48-.15v.81s0,.07,0,.07a4.9,4.9,0,0,1-2.25.19,2.13,2.13,0,0,1-1.76-1.89,2.81,2.81,0,0,1,.18-1.57,2,2,0,0,1,1.92-1.25,2.23,2.23,0,0,1,.85.13,1.47,1.47,0,0,1,.92,1,4.15,4.15,0,0,1,.21,1.48Zm-1.2-.71a1.62,1.62,0,0,0-.11-.72.69.69,0,0,0-.89-.4.61.61,0,0,0-.22.13,1.42,1.42,0,0,0-.4,1Z"/><path id="Trazado_181" data-name="Trazado 181" d="M95.1,107.28h-.62v-.77h.62V106a2.09,2.09,0,0,1,.24-1,1.35,1.35,0,0,1,1-.65,3.32,3.32,0,0,1,1.09,0s0,0,.06,0a1.67,1.67,0,0,0,.38.88l-.38-.12a4.34,4.34,0,0,0-.52-.07.51.51,0,0,0-.55.39,3,3,0,0,0-.08.52v.44h1.15v.77H96.34v3.78H95.1Z"/><path id="Trazado_182" data-name="Trazado 182" d="M98.51,106.51h1.23v4.54H98.51Z"/><path id="Trazado_183" data-name="Trazado 183" class="cls-1" d="M99.13,103.1a1.2,1.2,0,0,1,1.21,1.18v0a1.22,1.22,0,1,1-1.21-1.22Z"/></g></g></g></g></svg>