<svg xmlns="http://www.w3.org/2000/svg" viewBox="0 0 95.51 79.31"><defs><style>.cls-1{opacity:0.5;}.cls-2{fill:#635c5c;}</style></defs><g id="Capa_2" data-name="Capa 2"><g id="Capa_1-2" data-name="Capa 1"><g id="Grupo_6" data-name="Grupo 6" class="cls-1"><path id="Trazado_1" data-name="Trazado 1" class="cls-2" d="M41.63,11.91c-.22,6-4.48,10.7-9.52,10.52s-8.95-5.19-8.74-11.19S27.86.55,32.9.73,41.85,5.92,41.63,11.91Z"/><path id="Trazado_2" data-name="Trazado 2" class="cls-2" d="M59.93,0c4.88.18,8.71,3.9,8.54,8.3S64.22,16.15,59.34,16s-8.71-3.9-8.55-8.31S55-.17,59.93,0Z"/><path id="Trazado_3" data-name="Trazado 3" class="cls-2" d="M53.16,31.19s-3.23,1.24-1.9-2.19c0,0,2.85-6.28,8-6.57A103.63,103.63,0,0,0,83.34,10.25S87.05,7,89.53,8.63c0,0,2,.57-1.15,3.42,0,0-4.28,7.24-18.75,13.24,0,0-2.95.85-5,1.71,0,0-5.81,1.14-7.71,2.67Z"/><path id="Trazado_4" data-name="Trazado 4" class="cls-2" d="M55.07,34.71s-2.67.86-1.72,2.76c0,0,0,2,4.29.86l3-1.24s9.61-4,14.27-1.62c0,0,2.29,0,3.91,4.67,0,0,3.61,7.8,6.75,10.66a82,82,0,0,1,5,9.61s1,4.1,3,4.67c0,0,4.47-.57,0-12.19l-5-8s-4.76-8.44-5.52-11.77c0,0-2-6.47-8.72-6,0,0-2-.48-5.85,2C68.48,29.09,60.11,33,55.07,34.71Z"/><path id="Trazado_5" data-name="Trazado 5" class="cls-2" d="M3.57,23.1s-4.86-.74-3.24,4c0,0,5.24,6.13,29.8,5.94,0,0,9.8-.1,16.75-2.86,0,0,3.52-2.09,2.19-4.09,0,0-.31-1.24-2.24.12,0,0-.86.57-4,.89a17.67,17.67,0,0,0-7,1s-6.71,1.2-18.21-1A60.78,60.78,0,0,1,3.57,23.1Z"/><path id="Trazado_6" data-name="Trazado 6" class="cls-2" d="M14.2,36.09s-3.57-1-6.71,10c0,0-3,10.44-3,15.65,0,0,.42,6-.79,6.86a5.07,5.07,0,0,0-.79,4.78s1.79,1.64,4-1.29c0,0,3.57-2.49,5-14.92,0,0,1.78-14.13,10.21-15.56,0,0,4.28-1.43,12.71-.79a15.3,15.3,0,0,0,8.35-2.14s1.57-1.71-.71-2.93c0,0-1.57-.71-8.5.43A86.65,86.65,0,0,1,14.2,36.09Z"/><g id="Grupo_1" data-name="Grupo 1"><path id="Trazado_7" data-name="Trazado 7" class="cls-2" d="M19.85,67.68h-3v4.09h-2v-9.7h4.94v1.67h-3V66h3Z"/><path id="Trazado_8" data-name="Trazado 8" class="cls-2" d="M28.37,68a4.2,4.2,0,0,1-1,3,3.54,3.54,0,0,1-2.73,1,3.5,3.5,0,0,1-2.72-1A4.18,4.18,0,0,1,21,68V62.07h2v6.26a2.06,2.06,0,0,0,.42,1.42,1.83,1.83,0,0,0,2.47,0,2.15,2.15,0,0,0,.41-1.43V62.07h2Z"/><path id="Trazado_9" data-name="Trazado 9" class="cls-2" d="M38.49,71.77H36.55l-4.71-6.55v6.55H29.91v-9.7h1.93l4.71,6.52V62.07h1.94Z"/><path id="Trazado_10" data-name="Trazado 10" class="cls-2" d="M47.55,66.93a4.52,4.52,0,0,1-1.42,3.57,5.8,5.8,0,0,1-4,1.27H40v-9.7h2a6.1,6.1,0,0,1,4.14,1.25A4.5,4.5,0,0,1,47.55,66.93Zm-2,0a3.2,3.2,0,0,0-.82-2.34,3,3,0,0,0-2.27-.84h-.48V70.1h.48a3,3,0,0,0,2.27-.83,3.22,3.22,0,0,0,.82-2.35Z"/><path id="Trazado_11" data-name="Trazado 11" class="cls-2" d="M56.66,71.77h-2.2l-.66-2.15H50.32l-.66,2.15h-2.2l3.43-9.7h2.34Zm-3.33-3.69L52.05,64l-1.27,4.13Z"/><path id="Trazado_12" data-name="Trazado 12" class="cls-2" d="M64.08,71.25a4.32,4.32,0,0,1-1.19.51,5.39,5.39,0,0,1-1.43.22,4.77,4.77,0,0,1-3.6-1.37,5.15,5.15,0,0,1-1.31-3.7,5,5,0,0,1,1.36-3.64,4.72,4.72,0,0,1,3.59-1.41,5.83,5.83,0,0,1,1.44.15,3.71,3.71,0,0,1,1.14.49v2.1a4,4,0,0,0-1.14-.68,3.39,3.39,0,0,0-1.25-.24,3,3,0,0,0-2.25.88,3.26,3.26,0,0,0-.84,2.34,3.46,3.46,0,0,0,.77,2.37,2.63,2.63,0,0,0,2.12.87,3.74,3.74,0,0,0,1.44-.25,3.48,3.48,0,0,0,1.15-.79Z"/><path id="Trazado_13" data-name="Trazado 13" class="cls-2" d="M67,71.77h-2v-9.7h2Z"/><path id="Trazado_14" data-name="Trazado 14" class="cls-2" d="M78.07,66.92a4.91,4.91,0,0,1-1.43,3.61,5.08,5.08,0,0,1-7.1,0,5.3,5.3,0,0,1,0-7.23,5.08,5.08,0,0,1,7.1,0A5,5,0,0,1,78.07,66.92Zm-2,0a3.28,3.28,0,0,0-.81-2.3,3,3,0,0,0-4.2-.05l-.05.05a3.67,3.67,0,0,0,0,4.6,3,3,0,0,0,4.19,0l.06,0A3.24,3.24,0,0,0,76,66.92Z"/><path id="Trazado_15" data-name="Trazado 15" class="cls-2" d="M87.72,71.77H85.78l-4.71-6.55v6.55H79.14v-9.7h1.93l4.71,6.52V62.07h1.94Z"/></g><g id="Grupo_3" data-name="Grupo 3"><g id="Grupo_2" data-name="Grupo 2"><path id="Trazado_16" data-name="Trazado 16" class="cls-2" d="M16.64,75.86a1.93,1.93,0,0,1-.57,1.51,2.32,2.32,0,0,1-1.62.54h-.88v-4.1h.81a2.42,2.42,0,0,1,1.68.53A1.91,1.91,0,0,1,16.64,75.86Zm-.83,0a1.37,1.37,0,0,0-.33-1,1.17,1.17,0,0,0-.92-.36h-.19V77.2h.19a1.18,1.18,0,0,0,.92-.35A1.33,1.33,0,0,0,15.81,75.86Z"/><path id="Trazado_17" data-name="Trazado 17" class="cls-2" d="M19.66,76.57a1.4,1.4,0,0,1-2.39,1,1.49,1.49,0,0,1,0-2,1.38,1.38,0,0,1,1-.4,1.33,1.33,0,0,1,1,.41A1.4,1.4,0,0,1,19.66,76.57Zm-.77,0a.79.79,0,0,0-.18-.53.56.56,0,0,0-.8-.09l-.09.08a.93.93,0,0,0,0,1.08.59.59,0,0,0,.45.21.54.54,0,0,0,.45-.21A.81.81,0,0,0,18.89,76.57Z"/><path id="Trazado_18" data-name="Trazado 18" class="cls-2" d="M22.43,77.91h-.76V76.34a.78.78,0,0,0-.09-.45.32.32,0,0,0-.29-.13.42.42,0,0,0-.36.2,1.08,1.08,0,0,0-.14.58v1.37H20V75.23h.77v.32a.69.69,0,0,1,.31-.3,1.05,1.05,0,0,1,.49-.1.76.76,0,0,1,.63.27,1.38,1.38,0,0,1,.21.82Z"/><path id="Trazado_19" data-name="Trazado 19" class="cls-2" d="M25.49,77.91h-.76V77.6a.83.83,0,0,1-.3.29A.77.77,0,0,1,24,78a1.12,1.12,0,0,1-.89-.39,1.76,1.76,0,0,1,0-2,1.13,1.13,0,0,1,.89-.4,1,1,0,0,1,.44.11.63.63,0,0,1,.28.28V73.43h.76Zm-.76-1.34a.84.84,0,0,0-.17-.53.51.51,0,0,0-.42-.22.49.49,0,0,0-.41.22.93.93,0,0,0,0,1.06.5.5,0,0,0,.83,0A.84.84,0,0,0,24.73,76.57Z"/><path id="Trazado_20" data-name="Trazado 20" class="cls-2" d="M28.45,76.57v.14s0,.06,0,.09H26.61a.77.77,0,0,0,.21.41.49.49,0,0,0,.37.16.63.63,0,0,0,.33-.09.54.54,0,0,0,.21-.24l.61.3a1.2,1.2,0,0,1-.46.49,1.45,1.45,0,0,1-.71.16,1.21,1.21,0,0,1-1-.39,1.43,1.43,0,0,1-.36-1,1.45,1.45,0,0,1,.37-1,1.29,1.29,0,0,1,1.8-.07l.06.06A1.52,1.52,0,0,1,28.45,76.57Zm-.75-.24a.88.88,0,0,0-.2-.41.47.47,0,0,0-.67,0l0,0a.78.78,0,0,0-.19.41Z"/><path id="Trazado_21" data-name="Trazado 21" class="cls-2" d="M31.57,75.86H31.2v2h-.76v-2h-.3v-.62h.3v-.87h.76v.87h.37Z"/><path id="Trazado_22" data-name="Trazado 22" class="cls-2" d="M34.22,76.71a1.35,1.35,0,0,1-.29,1A1.15,1.15,0,0,1,33,78a1.2,1.2,0,0,1-.92-.3,1.43,1.43,0,0,1-.28-1V75.24h.77v1.55a.58.58,0,0,0,.1.4.42.42,0,0,0,.33.13.43.43,0,0,0,.32-.14.6.6,0,0,0,.11-.39V75.24h.76Z"/><path id="Trazado_23" data-name="Trazado 23" class="cls-2" d="M38.71,76.57v.14s0,.06,0,.09H36.87a.77.77,0,0,0,.21.41.49.49,0,0,0,.37.16.57.57,0,0,0,.32-.09A.56.56,0,0,0,38,77l.61.3a1.2,1.2,0,0,1-.46.49,1.45,1.45,0,0,1-.71.16,1.21,1.21,0,0,1-1-.39,1.43,1.43,0,0,1-.36-1,1.45,1.45,0,0,1,.37-1,1.27,1.27,0,0,1,1.79-.07l.07.06A1.52,1.52,0,0,1,38.71,76.57ZM38,76.33a.78.78,0,0,0-.19-.41.47.47,0,0,0-.67,0l0,0a.88.88,0,0,0-.2.41Z"/><path id="Trazado_24" data-name="Trazado 24" class="cls-2" d="M40.82,75.19l-.13.8a.42.42,0,0,0-.14-.06l-.13,0a.55.55,0,0,0-.46.21,1.09,1.09,0,0,0-.16.64v1.15H39V75.23h.76v.56a1.08,1.08,0,0,1,.28-.5.72.72,0,0,1,.51-.14h.12Z"/><path id="Trazado_25" data-name="Trazado 25" class="cls-2" d="M43.35,76.57v.23H41.51a.78.78,0,0,0,.22.41.49.49,0,0,0,.37.16.62.62,0,0,0,.32-.09.56.56,0,0,0,.22-.24l.61.3a1.2,1.2,0,0,1-.46.49,1.49,1.49,0,0,1-.72.16,1.23,1.23,0,0,1-1-.39,1.43,1.43,0,0,1-.36-1,1.46,1.46,0,0,1,.38-1,1.27,1.27,0,0,1,1.79-.07l.06.06A1.42,1.42,0,0,1,43.35,76.57Zm-.75-.24a.72.72,0,0,0-.2-.41.47.47,0,0,0-.67,0l0,0a.72.72,0,0,0-.2.41Z"/><path id="Trazado_26" data-name="Trazado 26" class="cls-2" d="M43.94,77.21a.51.51,0,0,0,.21.17.64.64,0,0,0,.27.07.43.43,0,0,0,.25-.07.21.21,0,0,0,.1-.18.27.27,0,0,0-.12-.21,1.27,1.27,0,0,0-.37-.18,1.28,1.28,0,0,1-.54-.34.84.84,0,0,1,.12-1.1,1.22,1.22,0,0,1,.77-.22,1.19,1.19,0,0,1,.45.08.86.86,0,0,1,.33.23l-.35.43a.51.51,0,0,0-.21-.15.59.59,0,0,0-.23,0,.5.5,0,0,0-.24.06.22.22,0,0,0-.09.16.32.32,0,0,0,.11.24,1.33,1.33,0,0,0,.38.18,1.19,1.19,0,0,1,.53.33.72.72,0,0,1,.18.49.74.74,0,0,1-.28.62,1.23,1.23,0,0,1-.79.22,1.28,1.28,0,0,1-.55-.1.9.9,0,0,1-.38-.29Z"/><path id="Trazado_27" data-name="Trazado 27" class="cls-2" d="M48.25,77.91h-.76V73.43h.76Z"/><path id="Trazado_28" data-name="Trazado 28" class="cls-2" d="M51.39,76.57a1.4,1.4,0,0,1-.39,1,1.41,1.41,0,0,1-2,0,1.49,1.49,0,0,1,0-2,1.36,1.36,0,0,1,1-.4,1.33,1.33,0,0,1,1,.41A1.4,1.4,0,0,1,51.39,76.57Zm-.77,0a.75.75,0,0,0-.18-.53.56.56,0,0,0-.8-.09.6.6,0,0,0-.08.08.93.93,0,0,0,0,1.08.56.56,0,0,0,.44.21.53.53,0,0,0,.45-.21.88.88,0,0,0,.18-.54Z"/><path id="Trazado_29" data-name="Trazado 29" class="cls-2" d="M57.16,77.91H56.4V76.34a.89.89,0,0,0-.07-.46.3.3,0,0,0-.26-.12.36.36,0,0,0-.32.2,1.17,1.17,0,0,0-.12.58v1.37h-.76V76.34a.89.89,0,0,0-.07-.46.3.3,0,0,0-.26-.12.38.38,0,0,0-.33.2,1.16,1.16,0,0,0-.11.58v1.37h-.77V75.23h.77v.32a.62.62,0,0,1,.3-.3.87.87,0,0,1,.45-.1.79.79,0,0,1,.45.11.67.67,0,0,1,.25.35.92.92,0,0,1,.34-.34,1,1,0,0,1,.49-.12.69.69,0,0,1,.6.25,1.33,1.33,0,0,1,.18.78Z"/><path id="Trazado_30" data-name="Trazado 30" class="cls-2" d="M60.22,77.91h-.76V77.6a.83.83,0,0,1-.3.29.77.77,0,0,1-.42.1,1.12,1.12,0,0,1-.89-.39,1.73,1.73,0,0,1,0-2,1.13,1.13,0,0,1,.89-.4,1,1,0,0,1,.44.11.63.63,0,0,1,.28.28v-.31h.76Zm-.76-1.34a.9.9,0,0,0-.17-.53.51.51,0,0,0-.84,0,1,1,0,0,0,0,1.06.52.52,0,0,0,.42.22.51.51,0,0,0,.42-.22.84.84,0,0,0,.17-.53Z"/><path id="Trazado_31" data-name="Trazado 31" class="cls-2" d="M61,77.21a.58.58,0,0,0,.21.17.64.64,0,0,0,.27.07.48.48,0,0,0,.26-.07.21.21,0,0,0,.09-.18.27.27,0,0,0-.12-.21,1.27,1.27,0,0,0-.37-.18,1.24,1.24,0,0,1-.53-.34.7.7,0,0,1-.16-.5.74.74,0,0,1,.27-.6,1.4,1.4,0,0,1,1.22-.14,1,1,0,0,1,.34.23l-.36.43a.62.62,0,0,0-.21-.15.59.59,0,0,0-.22,0,.54.54,0,0,0-.25.06.26.26,0,0,0-.09.16.3.3,0,0,0,.12.24,1.27,1.27,0,0,0,.37.18,1.14,1.14,0,0,1,.53.33.68.68,0,0,1,.18.49.74.74,0,0,1-.28.62,1.23,1.23,0,0,1-.79.22,1.31,1.31,0,0,1-.55-.1.82.82,0,0,1-.37-.29Z"/><path id="Trazado_32" data-name="Trazado 32" class="cls-2" d="M65.42,74.16a.44.44,0,0,1-.88,0,.44.44,0,0,1,.44-.44.44.44,0,0,1,.31.13A.46.46,0,0,1,65.42,74.16Zm-.06,3.75H64.6V75.24h.76Z"/><path id="Trazado_33" data-name="Trazado 33" class="cls-2" d="M69.76,77.91H69V76.34a1,1,0,0,0-.08-.46.28.28,0,0,0-.26-.12.37.37,0,0,0-.32.2,1.17,1.17,0,0,0-.12.58v1.37h-.76V76.34a.89.89,0,0,0-.07-.46.3.3,0,0,0-.26-.12.36.36,0,0,0-.32.2,1.17,1.17,0,0,0-.13.58v1.37h-.76V75.23h.76v.32a.72.72,0,0,1,.3-.3.93.93,0,0,1,.46-.1.74.74,0,0,1,.44.11.64.64,0,0,1,.26.35.92.92,0,0,1,.34-.34,1,1,0,0,1,.49-.12.67.67,0,0,1,.59.25,1.26,1.26,0,0,1,.19.78Z"/><path id="Trazado_34" data-name="Trazado 34" class="cls-2" d="M73,76.57a1.47,1.47,0,0,1-.34,1,1.07,1.07,0,0,1-.88.4.92.92,0,0,1-.44-.1.71.71,0,0,1-.28-.29v1.71h-.76V75.23h.76v.31a.83.83,0,0,1,.3-.29.87.87,0,0,1,.42-.1,1.13,1.13,0,0,1,.89.4A1.51,1.51,0,0,1,73,76.57Zm-.76,0a.78.78,0,0,0-.17-.53.52.52,0,0,0-.84,0,.91.91,0,0,0,0,1.06.51.51,0,0,0,.84,0A.78.78,0,0,0,72.23,76.57Z"/><path id="Trazado_35" data-name="Trazado 35" class="cls-2" d="M76,76.57a1.4,1.4,0,0,1-.4,1,1.33,1.33,0,0,1-1,.41,1.35,1.35,0,0,1-1-.41,1.49,1.49,0,0,1,0-2,1.4,1.4,0,0,1,1-.4,1.34,1.34,0,0,1,1,.41A1.4,1.4,0,0,1,76,76.57Zm-.77,0A.79.79,0,0,0,75,76a.56.56,0,0,0-.8-.09l-.09.08a.93.93,0,0,0,0,1.08.6.6,0,0,0,.83.08l.07-.08A.81.81,0,0,0,75.2,76.57Z"/><path id="Trazado_36" data-name="Trazado 36" class="cls-2" d="M78.11,75.19,78,76a.35.35,0,0,0-.14-.06l-.13,0a.55.55,0,0,0-.46.21,1,1,0,0,0-.15.64v1.15h-.76V75.23h.76v.56a1,1,0,0,1,.28-.5.85.85,0,0,1,.62-.13Z"/><path id="Trazado_37" data-name="Trazado 37" class="cls-2" d="M79.62,75.86h-.37v2h-.77v-2h-.29v-.62h.29v-.87h.77v.87h.37Z"/><path id="Trazado_38" data-name="Trazado 38" class="cls-2" d="M82.42,77.91h-.76V77.6a.83.83,0,0,1-.3.29.77.77,0,0,1-.42.1,1.12,1.12,0,0,1-.89-.39,1.73,1.73,0,0,1,0-2,1.13,1.13,0,0,1,.89-.4,1,1,0,0,1,.44.11.63.63,0,0,1,.28.28v-.31h.76Zm-.76-1.34a.9.9,0,0,0-.17-.53.51.51,0,0,0-.42-.22.49.49,0,0,0-.41.22.93.93,0,0,0,0,1.06.5.5,0,0,0,.83,0,.84.84,0,0,0,.17-.53Z"/><path id="Trazado_39" data-name="Trazado 39" class="cls-2" d="M85.37,77.91h-.76V76.34a.87.87,0,0,0-.09-.45.34.34,0,0,0-.3-.13.45.45,0,0,0-.36.2,1.08,1.08,0,0,0-.14.58v1.37H83V75.23h.76v.32a.67.67,0,0,1,.32-.3,1,1,0,0,1,.49-.1.74.74,0,0,1,.62.27,1.31,1.31,0,0,1,.21.82Z"/><path id="Trazado_40" data-name="Trazado 40" class="cls-2" d="M87.11,75.86h-.37v2H86v-2h-.3v-.62H86v-.87h.76v.87h.37Z"/><path id="Trazado_41" data-name="Trazado 41" class="cls-2" d="M89.77,76.57v.14s0,.06,0,.09H87.93a.72.72,0,0,0,.22.41.45.45,0,0,0,.36.16.63.63,0,0,0,.33-.09.54.54,0,0,0,.21-.24l.61.3a1.2,1.2,0,0,1-.46.49,1.45,1.45,0,0,1-.71.16,1.21,1.21,0,0,1-.95-.39,1.43,1.43,0,0,1-.36-1,1.45,1.45,0,0,1,.37-1,1.27,1.27,0,0,1,1.79-.07l.07.06A1.52,1.52,0,0,1,89.77,76.57ZM89,76.33a.78.78,0,0,0-.19-.41.48.48,0,0,0-.7,0,.81.81,0,0,0-.19.41Z"/></g></g><g id="Grupo_5" data-name="Grupo 5"><g id="Grupo_4" data-name="Grupo 4"><path id="Trazado_42" data-name="Trazado 42" class="cls-2" d="M27.09,45.38a1.64,1.64,0,0,1,1.63-1.66h.4a1.69,1.69,0,0,1,1.51.86l4,6.55,4-6.57a1.61,1.61,0,0,1,1.49-.84h.37a1.64,1.64,0,0,1,1.66,1.63v12a1.65,1.65,0,1,1-3.3,0V49.86L36,54.35a1.55,1.55,0,0,1-2.76,0l-2.87-4.43v7.52a1.62,1.62,0,0,1-1.63,1.61h0a1.6,1.6,0,0,1-1.62-1.58V45.38Z"/><path id="Trazado_43" data-name="Trazado 43" class="cls-2" d="M48.28,46.87h-3.2a1.53,1.53,0,0,1,0-3.06H54.8a1.53,1.53,0,0,1,0,3.06H51.6V57.39a1.67,1.67,0,0,1-3.33,0Z"/></g></g><path id="Trazado_44" data-name="Trazado 44" class="cls-2" d="M64.9,52.23a1.44,1.44,0,0,0,0,2h0l1.69,1.5a4.27,4.27,0,0,0,2.19-2.1L67,52.07A1.56,1.56,0,0,0,64.9,52.23Zm6.26,3.49A7.76,7.76,0,0,1,69,57.85l.92.82a1.6,1.6,0,0,0,2-.12,1.56,1.56,0,0,0-.05-2.2l0,0Zm-5.61.38a4.4,4.4,0,0,1-2.33-.16,4.61,4.61,0,0,1-.11-8.71,4.19,4.19,0,0,1,1.56-.29,4.44,4.44,0,0,1,1,.12,4.6,4.6,0,0,1,3.5,5.5,4.24,4.24,0,0,1-.39,1.1l2.36,2.06a7.44,7.44,0,0,0,1.3-4.19,7.79,7.79,0,1,0-8,7.59h.2A7.93,7.93,0,0,0,69,57.85l-2.37-2.09A4.86,4.86,0,0,1,65.55,56.1Z"/></g></g></g></svg>