<svg xmlns="http://www.w3.org/2000/svg" viewBox="0 0 98.29 81.63"><defs><style>.cls-1{fill:#fff;}</style></defs><g id="Capa_2" data-name="Capa 2"><g id="Capa_1-2" data-name="Capa 1"><g id="Capa_2-2" data-name="Capa 2"><g id="Capa_1-3" data-name="Capa 1"><path id="Trazado_91" data-name="Trazado 91" class="cls-1" d="M42.84,12.26c-.22,6.17-4.61,11-9.8,10.83s-9.21-5.34-9-11.51S28.68.57,33.86.77,43.11,6.11,42.84,12.26Z"/><path id="Trazado_92" data-name="Trazado 92" class="cls-1" d="M61.67,0c5,.17,9,4,8.8,8.54s-4.38,8.07-9.37,7.88-9-4-8.79-8.54S56.65-.17,61.67,0Z"/><path id="Trazado_93" data-name="Trazado 93" class="cls-1" d="M54.71,32.1s-3.33,1.28-2-2.25c0,0,2.94-6.46,8.23-6.76A106.72,106.72,0,0,0,85.76,10.55s3.82-3.33,6.37-1.66c0,0,2.06.58-1.17,3.52,0,0-4.42,7.45-19.3,13.62,0,0-3,.88-5.2,1.76,0,0-6,1.17-7.93,2.75Z"/><path id="Trazado_94" data-name="Trazado 94" class="cls-1" d="M56.67,35.73s-2.75.88-1.76,2.81c0,0,0,2.05,4.4.88l3-1.27s9.9-4.09,14.7-1.6c0,0,2.35,0,4,4.81,0,0,3.74,8,7,11a84.77,84.77,0,0,1,5.19,9.9s1,4.22,3,4.8c0,0,4.61-.58,0-12.53l-5.09-8.26s-4.94-8.73-5.68-12.16c0,0-2.09-6.67-9-6.18,0,0-2-.49-6,2.06C70.47,30,61.85,34,56.67,35.73Z"/><path id="Trazado_95" data-name="Trazado 95" class="cls-1" d="M3.67,23.77s-5-.76-3.33,4.08c0,0,5.39,6.3,30.66,6.12,0,0,10.09-.1,17.24-2.95,0,0,3.63-2.15,2.26-4.21,0,0-.33-1.27-2.3.13,0,0-.89.58-4.12.93a18.74,18.74,0,0,0-7.2,1s-6.9,1.24-18.75-1a61.69,61.69,0,0,1-14.46-4.1Z"/><path id="Trazado_96" data-name="Trazado 96" class="cls-1" d="M14.62,37.14S11,36.08,7.71,47.45c0,0-3.08,10.75-3.08,16.11,0,0,.44,6.17-.81,7.06A5.19,5.19,0,0,0,3,75.54s1.87,1.68,4.11-1.32c0,0,3.67-2.58,5.14-15.36,0,0,1.88-14.55,10.5-16,0,0,4.42-1.47,13.12-.8a16,16,0,0,0,8.6-2.2,1.83,1.83,0,0,0-.73-3s-1.63-.73-8.75.44A89,89,0,0,1,14.62,37.14Z"/><path id="Trazado_97" data-name="Trazado 97" class="cls-1" d="M20.43,69.65H17.37v4.22h-2v-10h5.09V65.6H17.37v2.34h3.06Z"/><path id="Trazado_98" data-name="Trazado 98" class="cls-1" d="M29.19,70a4.27,4.27,0,0,1-.94,3,3.67,3.67,0,0,1-2.81,1.06A3.65,3.65,0,0,1,22.63,73a4.3,4.3,0,0,1-1-3v-6.1h2.1v6.41a2.11,2.11,0,0,0,.43,1.46,1.55,1.55,0,0,0,1.27.5,1.62,1.62,0,0,0,1.28-.47,2.3,2.3,0,0,0,.37-1.49V63.88h2.1Z"/><path id="Trazado_99" data-name="Trazado 99" class="cls-1" d="M39.6,73.87h-2L32.8,67.12v6.75h-2v-10h2l4.84,6.71V63.88h2Z"/><path id="Trazado_100" data-name="Trazado 100" class="cls-1" d="M48.94,68.88a4.69,4.69,0,0,1-1.47,3.68,6,6,0,0,1-4.11,1.31H41.12v-10h2.07a6.31,6.31,0,0,1,4.27,1.28,4.73,4.73,0,0,1,1.48,3.72Zm-2.12,0a3.35,3.35,0,0,0-.83-2.4,3.11,3.11,0,0,0-2.34-.88h-.54v6.56h.5A3.06,3.06,0,0,0,46,71.31a3.34,3.34,0,0,0,.91-2.44Z"/><path id="Trazado_101" data-name="Trazado 101" class="cls-1" d="M58.31,73.87H56l-.68-2.21H51.78l-.68,2.21H48.83l3.54-10h2.41Zm-3.42-3.8-1.32-4.26-1.3,4.25Z"/><path id="Trazado_102" data-name="Trazado 102" class="cls-1" d="M65.94,73.33a4.3,4.3,0,0,1-1.23.52,5.63,5.63,0,0,1-1.46.23,4.9,4.9,0,0,1-3.7-1.41,5.24,5.24,0,0,1-1.35-3.81,5.07,5.07,0,0,1,1.4-3.75,4.85,4.85,0,0,1,3.69-1.46,6.23,6.23,0,0,1,1.49.15,3.85,3.85,0,0,1,1.16.5v2.17a3.87,3.87,0,0,0-1.17-.7,3.56,3.56,0,0,0-1.29-.24,3,3,0,0,0-2.31.94,3.36,3.36,0,0,0-.86,2.4,3.56,3.56,0,0,0,.79,2.45,2.82,2.82,0,0,0,2.18.94A4.17,4.17,0,0,0,64.76,72a3.58,3.58,0,0,0,1.18-.82Z"/><path id="Trazado_103" data-name="Trazado 103" class="cls-1" d="M69,73.87H67v-10h2Z"/><path id="Trazado_104" data-name="Trazado 104" class="cls-1" d="M80.34,68.87a5.13,5.13,0,0,1-1.47,3.75,5.21,5.21,0,0,1-7.3,0,5.4,5.4,0,0,1,0-7.44,5.23,5.23,0,0,1,7.3,0A5.08,5.08,0,0,1,80.34,68.87Zm-2.1,0a3.42,3.42,0,0,0-.84-2.37,3.06,3.06,0,0,0-4.32,0l0,0a3.75,3.75,0,0,0,0,4.73,3,3,0,0,0,4.29.08l.08-.08a3.38,3.38,0,0,0,.84-2.36Z"/><path id="Trazado_105" data-name="Trazado 105" class="cls-1" d="M90.27,73.87h-2L83.4,67.12v6.75h-2v-10h2l4.85,6.71V63.88h2Z"/><path id="Trazado_106" data-name="Trazado 106" class="cls-1" d="M17.13,78.08a2,2,0,0,1-.6,1.58,2.28,2.28,0,0,1-1.66.55h-.93V76h.84a2.5,2.5,0,0,1,1.72.54A2,2,0,0,1,17.13,78.08Zm-.86,0a1.45,1.45,0,0,0-.34-1,1.2,1.2,0,0,0-.93-.37h-.2V79.5H15a1.19,1.19,0,0,0,.93-.36,1.44,1.44,0,0,0,.34-1.07Z"/><path id="Trazado_107" data-name="Trazado 107" class="cls-1" d="M20.24,78.8a1.52,1.52,0,0,1-.4,1,1.44,1.44,0,0,1-2.47-1,1.47,1.47,0,0,1,1.47-1.43,1.4,1.4,0,0,1,1,.42A1.47,1.47,0,0,1,20.24,78.8Zm-.8,0a.91.91,0,0,0-.18-.55A.62.62,0,0,0,18.8,78a.55.55,0,0,0-.46.21.91.91,0,0,0-.18.55.94.94,0,0,0,.18.56.58.58,0,0,0,.46.22.62.62,0,0,0,.47-.22A.86.86,0,0,0,19.44,78.8Z"/><path id="Trazado_108" data-name="Trazado 108" class="cls-1" d="M23.08,80.18H22.3V78.56a.79.79,0,0,0-.09-.45.33.33,0,0,0-.3-.14.47.47,0,0,0-.38.21,1.1,1.1,0,0,0-.14.59v1.41h-.77V77.43h.78v.36a.68.68,0,0,1,.33-.3,1,1,0,0,1,.51-.1.71.71,0,0,1,.63.28,1.29,1.29,0,0,1,.22.83Z"/><path id="Trazado_109" data-name="Trazado 109" class="cls-1" d="M26.24,80.18h-.78v-.31a.89.89,0,0,1-.31.3,1,1,0,0,1-.43.1,1.14,1.14,0,0,1-.94-.42,1.77,1.77,0,0,1,0-2.1,1.13,1.13,0,0,1,.94-.41.87.87,0,0,1,.45.1.65.65,0,0,1,.29.3V75.56h.78Zm-.78-1.37a.94.94,0,0,0-.16-.56.55.55,0,0,0-.43-.21.53.53,0,0,0-.42.21.93.93,0,0,0,0,1.1.54.54,0,0,0,.43.23.51.51,0,0,0,.43-.23.79.79,0,0,0,.14-.54Z"/><path id="Trazado_110" data-name="Trazado 110" class="cls-1" d="M29.28,78.8V79H27.4a.76.76,0,0,0,.23.42.48.48,0,0,0,.37.17.67.67,0,0,0,.34-.09.57.57,0,0,0,.21-.25l.63.3a1,1,0,0,1-.47.5,1.32,1.32,0,0,1-.73.18,1.25,1.25,0,0,1-1-.4,1.59,1.59,0,0,1-.37-1.07,1.46,1.46,0,0,1,.39-1,1.31,1.31,0,0,1,1.84,0l0,0a1.52,1.52,0,0,1,.39,1Zm-.78-.24a.86.86,0,0,0-.2-.43.5.5,0,0,0-.71,0h0a.78.78,0,0,0-.2.42Z"/><path id="Trazado_111" data-name="Trazado 111" class="cls-1" d="M32.49,78.07h-.38v2.1h-.78v-2.1H31v-.64h.31v-.94h.78v.94h.38Z"/><path id="Trazado_112" data-name="Trazado 112" class="cls-1" d="M35.22,79a1.45,1.45,0,0,1-.3,1A1.58,1.58,0,0,1,33,80a1.55,1.55,0,0,1-.28-1V77.43h.78V79a.65.65,0,0,0,.11.41.43.43,0,0,0,.34.13.38.38,0,0,0,.33-.14.64.64,0,0,0,.11-.4v-1.6h.79Z"/><path id="Trazado_113" data-name="Trazado 113" class="cls-1" d="M39.84,78.8V79a.14.14,0,0,0,0,.09H38a.81.81,0,0,0,.22.42.52.52,0,0,0,.38.17.63.63,0,0,0,.33-.09.61.61,0,0,0,.23-.25l.62.3a1,1,0,0,1-.47.5,1.32,1.32,0,0,1-.73.18,1.26,1.26,0,0,1-.93-.4,1.53,1.53,0,0,1-.38-1.07,1.42,1.42,0,0,1,.4-1,1.26,1.26,0,0,1,1.87,0A1.5,1.5,0,0,1,39.84,78.8Zm-.78-.24a1,1,0,0,0-.2-.43.51.51,0,0,0-.37-.15.46.46,0,0,0-.35.16.75.75,0,0,0-.2.42Z"/><path id="Trazado_114" data-name="Trazado 114" class="cls-1" d="M42,77.38l-.14.82a.35.35,0,0,0-.14-.06H41.6a.55.55,0,0,0-.47.22A1,1,0,0,0,41,79v1.19h-.79V77.43H41V78a1,1,0,0,1,.29-.5.7.7,0,0,1,.52-.15h.13Z"/><path id="Trazado_115" data-name="Trazado 115" class="cls-1" d="M44.62,78.8V79H42.74a.76.76,0,0,0,.23.42.48.48,0,0,0,.37.17.63.63,0,0,0,.33-.09.53.53,0,0,0,.22-.25l.63.3a1,1,0,0,1-.47.5,1.32,1.32,0,0,1-.73.18,1.25,1.25,0,0,1-1-.4A1.59,1.59,0,0,1,42,78.8a1.46,1.46,0,0,1,.39-1,1.23,1.23,0,0,1,.93-.42,1.19,1.19,0,0,1,.94.41,1.5,1.5,0,0,1,.39,1Zm-.78-.24a1,1,0,0,0-.2-.43.51.51,0,0,0-.37-.15.48.48,0,0,0-.35.16.75.75,0,0,0-.2.42Z"/><path id="Trazado_116" data-name="Trazado 116" class="cls-1" d="M45.23,79.46a.41.41,0,0,0,.2.17.6.6,0,0,0,.29.08.48.48,0,0,0,.26-.07.22.22,0,0,0,.09-.19.26.26,0,0,0-.11-.21,1.76,1.76,0,0,0-.39-.19,1.38,1.38,0,0,1-.59-.33.85.85,0,0,1,.13-1.13,1.26,1.26,0,0,1,.78-.23,1.44,1.44,0,0,1,.46.08.79.79,0,0,1,.35.24l-.37.44a.83.83,0,0,0-.21-.16h-.23a.43.43,0,0,0-.25.07.2.2,0,0,0-.09.17.25.25,0,0,0,.12.23,1.09,1.09,0,0,0,.37.19,1.17,1.17,0,0,1,.56.34.77.77,0,0,1,.18.5.75.75,0,0,1-.29.64,1.21,1.21,0,0,1-.8.23,1.28,1.28,0,0,1-.58-.11.83.83,0,0,1-.38-.29Z"/><path id="Trazado_117" data-name="Trazado 117" class="cls-1" d="M49.67,80.18h-.79V75.56h.79Z"/><path id="Trazado_118" data-name="Trazado 118" class="cls-1" d="M52.89,78.8a1.46,1.46,0,0,1-.41,1,1.46,1.46,0,0,1-2,0,1.41,1.41,0,0,1-.4-1,1.36,1.36,0,0,1,.41-1,1.37,1.37,0,0,1,1-.42,1.42,1.42,0,0,1,1.42,1.43Zm-.79,0a.85.85,0,0,0-.18-.55.59.59,0,0,0-.46-.21.55.55,0,0,0-.46.21.85.85,0,0,0-.18.55.94.94,0,0,0,.18.56.6.6,0,0,0,.93,0A.86.86,0,0,0,52.1,78.8Z"/><path id="Trazado_119" data-name="Trazado 119" class="cls-1" d="M58.82,80.18H58V78.56a1,1,0,0,0-.07-.47.3.3,0,0,0-.26-.12.37.37,0,0,0-.34.21,1.18,1.18,0,0,0-.12.59v1.4h-.78V78.56a1.08,1.08,0,0,0-.07-.47.3.3,0,0,0-.27-.12.36.36,0,0,0-.33.21,1.09,1.09,0,0,0-.13.59v1.4h-.78V77.43h.78v.36a.67.67,0,0,1,.31-.31,1.1,1.1,0,0,1,.47-.1.86.86,0,0,1,.45.11.69.69,0,0,1,.26.3.84.84,0,0,1,.35-.35,1,1,0,0,1,.51-.12.71.71,0,0,1,.61.25,1.42,1.42,0,0,1,.18.81Z"/><path id="Trazado_120" data-name="Trazado 120" class="cls-1" d="M62,80.18h-.79v-.31a.79.79,0,0,1-.3.3,1,1,0,0,1-.43.1,1.15,1.15,0,0,1-.93-.42,1.74,1.74,0,0,1,0-2.1,1.1,1.1,0,0,1,.93-.41,1,1,0,0,1,.45.1.55.55,0,0,1,.28.3v-.32H62Zm-.79-1.37a.94.94,0,0,0-.16-.56.56.56,0,0,0-.87,0,1,1,0,0,0-.17.56,1,1,0,0,0,.17.54.53.53,0,0,0,.87,0A.88.88,0,0,0,61.18,78.81Z"/><path id="Trazado_121" data-name="Trazado 121" class="cls-1" d="M62.79,79.46a.5.5,0,0,0,.21.17.74.74,0,0,0,.28.08.5.5,0,0,0,.27-.07.25.25,0,0,0,.09-.19.26.26,0,0,0-.12-.21,1.76,1.76,0,0,0-.39-.19,1.36,1.36,0,0,1-.54-.35.72.72,0,0,1-.17-.51.75.75,0,0,1,.29-.62,1.21,1.21,0,0,1,.78-.22,1.49,1.49,0,0,1,.47.07,1.07,1.07,0,0,1,.35.25l-.37.44a.6.6,0,0,0-.22-.16.45.45,0,0,0-.23,0,.34.34,0,0,0-.24.06.21.21,0,0,0-.1.17.32.32,0,0,0,.11.24,1.15,1.15,0,0,0,.39.18,1.14,1.14,0,0,1,.54.34.74.74,0,0,1,.2.51.75.75,0,0,1-.3.63,1.22,1.22,0,0,1-.8.24,1.47,1.47,0,0,1-.58-.12.83.83,0,0,1-.38-.29Z"/><path id="Trazado_122" data-name="Trazado 122" class="cls-1" d="M67.32,76.32a.42.42,0,0,1-.13.32.46.46,0,0,1-.64,0,.42.42,0,0,1-.14-.32.45.45,0,0,1,.12-.31.44.44,0,0,1,.64,0A.42.42,0,0,1,67.32,76.32Zm-.06,3.86h-.78V77.43h.78Z"/><path id="Trazado_123" data-name="Trazado 123" class="cls-1" d="M71.79,80.18H71V78.56a.89.89,0,0,0-.07-.46.3.3,0,0,0-.27-.13.36.36,0,0,0-.33.21,1.1,1.1,0,0,0-.12.59v1.41h-.78V78.56a1,1,0,0,0-.08-.46.29.29,0,0,0-.27-.13.36.36,0,0,0-.33.21,1.34,1.34,0,0,0-.13.59v1.41h-.77V77.43h.77v.36a.77.77,0,0,1,.31-.31,1.1,1.1,0,0,1,.47-.1.93.93,0,0,1,.46.12.61.61,0,0,1,.26.35,1.1,1.1,0,0,1,.36-.35,1.06,1.06,0,0,1,.5-.12.69.69,0,0,1,.61.26,1.33,1.33,0,0,1,.2.8Z"/><path id="Trazado_124" data-name="Trazado 124" class="cls-1" d="M75.12,78.8a1.63,1.63,0,0,1-.35,1.06,1.16,1.16,0,0,1-.93.41,1,1,0,0,1-.45-.11.63.63,0,0,1-.29-.29v1.76h-.78v-4.2h.78v.35a.79.79,0,0,1,.3-.3.91.91,0,0,1,.43-.1,1.15,1.15,0,0,1,.93.4A1.65,1.65,0,0,1,75.12,78.8Zm-.79,0a.84.84,0,0,0-.17-.55.56.56,0,0,0-.87,0,1,1,0,0,0,0,1.1.52.52,0,0,0,.73.13.4.4,0,0,0,.13-.13A.79.79,0,0,0,74.33,78.8Z"/><path id="Trazado_125" data-name="Trazado 125" class="cls-1" d="M78.17,78.8a1.41,1.41,0,0,1-2.43,1,1.55,1.55,0,0,1,0-2.09,1.33,1.33,0,0,1,1-.41,1.42,1.42,0,0,1,1.4,1.45Zm-.78,0a.92.92,0,0,0-.19-.55.6.6,0,0,0-.45-.21.55.55,0,0,0-.46.21.85.85,0,0,0-.18.55.87.87,0,0,0,.18.56.59.59,0,0,0,.92,0A.87.87,0,0,0,77.39,78.8Z"/><path id="Trazado_126" data-name="Trazado 126" class="cls-1" d="M80.39,77.38l-.15.82-.13-.06H80a.58.58,0,0,0-.48.22,1.1,1.1,0,0,0-.15.64v1.19h-.78V77.43h.78V78a.91.91,0,0,1,.29-.5.7.7,0,0,1,.52-.15h.12Z"/><path id="Trazado_127" data-name="Trazado 127" class="cls-1" d="M81.94,78.07h-.41v2.1h-.79v-2.1h-.31v-.64h.31v-.94h.79v.94h.38Z"/><path id="Trazado_128" data-name="Trazado 128" class="cls-1" d="M84.82,80.18H84v-.31a1,1,0,0,1-.31.3,1,1,0,0,1-.43.1,1.19,1.19,0,0,1-.94-.42,1.77,1.77,0,0,1,0-2.1,1.16,1.16,0,0,1,.94-.41,1,1,0,0,1,.45.1.65.65,0,0,1,.29.3v-.32h.78ZM84,78.81a1,1,0,0,0-.18-.56.55.55,0,0,0-.43-.21.53.53,0,0,0-.42.21.93.93,0,0,0,0,1.1.52.52,0,0,0,.86,0,.79.79,0,0,0,.17-.54Z"/><path id="Trazado_129" data-name="Trazado 129" class="cls-1" d="M87.85,80.18h-.77V78.56a.79.79,0,0,0-.1-.45.34.34,0,0,0-.3-.14.44.44,0,0,0-.37.21,1,1,0,0,0-.15.59v1.41h-.78V77.43h.78v.36a.64.64,0,0,1,.33-.3,1,1,0,0,1,.5-.1.72.72,0,0,1,.64.28,1.35,1.35,0,0,1,.22.83Z"/><path id="Trazado_130" data-name="Trazado 130" class="cls-1" d="M89.64,78.07h-.38v2.1h-.78v-2.1h-.31v-.64h.31v-.94h.78v.94h.39Z"/><path id="Trazado_131" data-name="Trazado 131" class="cls-1" d="M92.38,78.8V79H90.51a.69.69,0,0,0,.22.42.5.5,0,0,0,.38.17.66.66,0,0,0,.33-.09.59.59,0,0,0,.22-.25l.63.3a1.09,1.09,0,0,1-.47.5,1.34,1.34,0,0,1-.73.18,1.28,1.28,0,0,1-1-.4,1.53,1.53,0,0,1-.36-1.07,1.45,1.45,0,0,1,.38-1,1.25,1.25,0,0,1,.94-.42,1.21,1.21,0,0,1,.94.41,1.49,1.49,0,0,1,.38,1Zm-.78-.24a.78.78,0,0,0-.2-.43.5.5,0,0,0-.71,0h0a.78.78,0,0,0-.2.42Z"/><path id="Trazado_132" data-name="Trazado 132" class="cls-1" d="M27.88,46.71A1.7,1.7,0,0,1,29.56,45H30a1.77,1.77,0,0,1,1.55.93l4.13,6.74,4.16-6.75A1.68,1.68,0,0,1,41.35,45h.37a1.71,1.71,0,0,1,1.72,1.69V59a1.72,1.72,0,0,1-1.56,1.85A1.7,1.7,0,0,1,40,59.33,1.4,1.4,0,0,1,40,59V51.31l-3,4.62a1.59,1.59,0,0,1-2.17.64,1.54,1.54,0,0,1-.65-.64l-2.95-4.55v7.73a1.67,1.67,0,0,1-1.67,1.67h0a1.65,1.65,0,0,1-1.67-1.63v0Z"/><path id="Trazado_133" data-name="Trazado 133" class="cls-1" d="M49.67,48.24H46.39a1.58,1.58,0,1,1,0-3.15h10a1.58,1.58,0,1,1,0,3.15H53.11V59a1.72,1.72,0,0,1-3.44,0Z"/><path id="Trazado_134" data-name="Trazado 134" class="cls-1" d="M66.79,53.76a1.47,1.47,0,0,0,0,2.09l1.74,1.54a4.39,4.39,0,0,0,2.25-2.16l-1.87-1.64A1.59,1.59,0,0,0,66.79,53.76Zm6.44,3.59A8.05,8.05,0,0,1,71,59.54l.93.84A1.61,1.61,0,0,0,74,60.25,1.59,1.59,0,0,0,74,58L73.93,58Zm-5.76.38a4.23,4.23,0,0,1-.94.1A4.49,4.49,0,0,1,65,57.57a4.75,4.75,0,0,1-.11-9,4.62,4.62,0,0,1,1.6-.29,4.55,4.55,0,0,1,1,.12,4.76,4.76,0,0,1,3.75,4.63,4.82,4.82,0,0,1-.52,2.17l2.42,2.11A7.56,7.56,0,0,0,74.56,53a8,8,0,1,0-8.22,7.82h.19A8.19,8.19,0,0,0,71,59.54l-2.43-2.16a4.4,4.4,0,0,1-1.06.35Z"/><path id="Trazado_135" data-name="Trazado 135" class="cls-1" d="M42.84,12.26c-.22,6.17-4.61,11-9.8,10.83s-9.21-5.34-9-11.51S28.68.57,33.86.77,43.11,6.11,42.84,12.26Z"/><path id="Trazado_136" data-name="Trazado 136" class="cls-1" d="M61.67,0c5,.17,9,4,8.8,8.54s-4.38,8.07-9.37,7.88-9-4-8.79-8.54S56.65-.17,61.67,0Z"/><path id="Trazado_137" data-name="Trazado 137" class="cls-1" d="M54.71,32.1s-3.33,1.28-2-2.25c0,0,2.94-6.46,8.23-6.76A106.72,106.72,0,0,0,85.76,10.55s3.82-3.33,6.37-1.66c0,0,2.06.58-1.17,3.52,0,0-4.42,7.45-19.3,13.62,0,0-3,.88-5.2,1.76,0,0-6,1.17-7.93,2.75Z"/><path id="Trazado_138" data-name="Trazado 138" class="cls-1" d="M56.67,35.73s-2.75.88-1.76,2.81c0,0,0,2.05,4.4.88l3-1.27s9.9-4.09,14.7-1.6c0,0,2.35,0,4,4.81,0,0,3.74,8,7,11a84.77,84.77,0,0,1,5.19,9.9s1,4.22,3,4.8c0,0,4.61-.58,0-12.53l-5.09-8.26s-4.94-8.73-5.68-12.16c0,0-2.09-6.67-9-6.18,0,0-2-.49-6,2.06C70.47,30,61.85,34,56.67,35.73Z"/><path id="Trazado_139" data-name="Trazado 139" class="cls-1" d="M3.67,23.77s-5-.76-3.33,4.08c0,0,5.39,6.3,30.66,6.12,0,0,10.09-.1,17.24-2.95,0,0,3.63-2.15,2.26-4.21,0,0-.33-1.27-2.3.13,0,0-.89.58-4.12.93a18.74,18.74,0,0,0-7.2,1s-6.9,1.24-18.75-1a61.69,61.69,0,0,1-14.46-4.1Z"/><path id="Trazado_140" data-name="Trazado 140" class="cls-1" d="M14.62,37.14S11,36.08,7.71,47.45c0,0-3.08,10.75-3.08,16.11,0,0,.44,6.17-.81,7.06A5.19,5.19,0,0,0,3,75.54s1.87,1.68,4.11-1.32c0,0,3.67-2.58,5.14-15.36,0,0,1.88-14.55,10.5-16,0,0,4.42-1.47,13.12-.8a16,16,0,0,0,8.6-2.2,1.83,1.83,0,0,0-.73-3s-1.63-.73-8.75.44A89,89,0,0,1,14.62,37.14Z"/><path id="Trazado_141" data-name="Trazado 141" class="cls-1" d="M20.43,69.65H17.37v4.22h-2v-10h5.09V65.6H17.37v2.34h3.06Z"/><path id="Trazado_142" data-name="Trazado 142" class="cls-1" d="M29.19,70a4.27,4.27,0,0,1-.94,3,3.67,3.67,0,0,1-2.81,1.06A3.65,3.65,0,0,1,22.63,73a4.3,4.3,0,0,1-1-3v-6.1h2.1v6.41a2.11,2.11,0,0,0,.43,1.46,1.55,1.55,0,0,0,1.27.5,1.62,1.62,0,0,0,1.28-.47,2.3,2.3,0,0,0,.37-1.49V63.88h2.1Z"/><path id="Trazado_143" data-name="Trazado 143" class="cls-1" d="M39.6,73.87h-2L32.8,67.12v6.75h-2v-10h2l4.84,6.71V63.88h2Z"/><path id="Trazado_144" data-name="Trazado 144" class="cls-1" d="M48.94,68.88a4.69,4.69,0,0,1-1.47,3.68,6,6,0,0,1-4.11,1.31H41.12v-10h2.07a6.31,6.31,0,0,1,4.27,1.28,4.73,4.73,0,0,1,1.48,3.72Zm-2.12,0a3.35,3.35,0,0,0-.83-2.4,3.11,3.11,0,0,0-2.34-.88h-.54v6.56h.5A3.06,3.06,0,0,0,46,71.31a3.34,3.34,0,0,0,.91-2.44Z"/><path id="Trazado_145" data-name="Trazado 145" class="cls-1" d="M58.31,73.87H56l-.68-2.21H51.78l-.68,2.21H48.83l3.54-10h2.41Zm-3.42-3.8-1.32-4.26-1.3,4.25Z"/><path id="Trazado_146" data-name="Trazado 146" class="cls-1" d="M65.94,73.33a4.3,4.3,0,0,1-1.23.52,5.63,5.63,0,0,1-1.46.23,4.9,4.9,0,0,1-3.7-1.41,5.24,5.24,0,0,1-1.35-3.81,5.07,5.07,0,0,1,1.4-3.75,4.85,4.85,0,0,1,3.69-1.46,6.23,6.23,0,0,1,1.49.15,3.85,3.85,0,0,1,1.16.5v2.17a3.87,3.87,0,0,0-1.17-.7,3.56,3.56,0,0,0-1.29-.24,3,3,0,0,0-2.31.94,3.36,3.36,0,0,0-.86,2.4,3.56,3.56,0,0,0,.79,2.45,2.82,2.82,0,0,0,2.18.94A4.17,4.17,0,0,0,64.76,72a3.58,3.58,0,0,0,1.18-.82Z"/><path id="Trazado_147" data-name="Trazado 147" class="cls-1" d="M69,73.87H67v-10h2Z"/><path id="Trazado_148" data-name="Trazado 148" class="cls-1" d="M80.34,68.87a5.13,5.13,0,0,1-1.47,3.75,5.21,5.21,0,0,1-7.3,0,5.4,5.4,0,0,1,0-7.44,5.23,5.23,0,0,1,7.3,0A5.08,5.08,0,0,1,80.34,68.87Zm-2.1,0a3.42,3.42,0,0,0-.84-2.37,3.06,3.06,0,0,0-4.32,0l0,0a3.75,3.75,0,0,0,0,4.73,3,3,0,0,0,4.29.08l.08-.08a3.38,3.38,0,0,0,.84-2.36Z"/><path id="Trazado_149" data-name="Trazado 149" class="cls-1" d="M90.27,73.87h-2L83.4,67.12v6.75h-2v-10h2l4.85,6.71V63.88h2Z"/><path id="Trazado_150" data-name="Trazado 150" class="cls-1" d="M27.88,46.71A1.7,1.7,0,0,1,29.56,45H30a1.77,1.77,0,0,1,1.55.93l4.13,6.74,4.16-6.75A1.68,1.68,0,0,1,41.35,45h.37a1.71,1.71,0,0,1,1.72,1.69V59a1.72,1.72,0,0,1-1.56,1.85A1.7,1.7,0,0,1,40,59.33,1.4,1.4,0,0,1,40,59V51.31l-3,4.62a1.59,1.59,0,0,1-2.17.64,1.54,1.54,0,0,1-.65-.64l-2.95-4.55v7.73a1.67,1.67,0,0,1-1.67,1.67h0a1.65,1.65,0,0,1-1.67-1.63v0Z"/><path id="Trazado_151" data-name="Trazado 151" class="cls-1" d="M49.67,48.24H46.39a1.58,1.58,0,1,1,0-3.15h10a1.58,1.58,0,1,1,0,3.15H53.11V59a1.72,1.72,0,0,1-3.44,0Z"/><path id="Trazado_152" data-name="Trazado 152" class="cls-1" d="M66.79,53.76a1.47,1.47,0,0,0,0,2.09l1.74,1.54a4.39,4.39,0,0,0,2.25-2.16l-1.87-1.64A1.59,1.59,0,0,0,66.79,53.76Zm6.44,3.59A8.05,8.05,0,0,1,71,59.54l.93.84A1.61,1.61,0,0,0,74,60.25,1.59,1.59,0,0,0,74,58L73.93,58Zm-5.76.38a4.23,4.23,0,0,1-.94.1A4.49,4.49,0,0,1,65,57.57a4.75,4.75,0,0,1-.11-9,4.62,4.62,0,0,1,1.6-.29,4.55,4.55,0,0,1,1,.12,4.76,4.76,0,0,1,3.75,4.63,4.82,4.82,0,0,1-.52,2.17l2.42,2.11A7.56,7.56,0,0,0,74.56,53a8,8,0,1,0-8.22,7.82h.19A8.19,8.19,0,0,0,71,59.54l-2.43-2.16a4.4,4.4,0,0,1-1.06.35Z"/></g></g></g></g></svg>