<svg xmlns="http://www.w3.org/2000/svg" viewBox="0 0 574.27 615.07"><defs><style>.cls-1{fill:#fff;}.cls-2{opacity:0.2;}.cls-3,.cls-4{fill:none;stroke:#fff;stroke-linecap:round;stroke-linejoin:round;stroke-width:4px;}.cls-4{stroke-dasharray:12.48 7.49;}</style></defs><g id="Capa_2" data-name="Capa 2"><g id="Capa_1-2" data-name="Capa 1"><g id="Capa_2-2" data-name="Capa 2"><g id="Capa_2-2-2" data-name="Capa 2-2"><path id="Trazado_239" data-name="Trazado 239" class="cls-1" d="M441.64,312.77l-.93-12.55q-12.56.91-25.1,1.31c0-39.71-14.18-77.63-39.44-104.85-20.44-22-46.8-35.4-74.84-38.31.5-2.44,1-4.88,1.49-7.31l-12.26-2.66c-.66,3.12-1.3,6.25-1.9,9.38-68,.66-124.79,62.75-127.75,141v1.9q-12-.75-23.88-2l-1.29,12.55c8.39.86,16.84,1.5,25.28,2C162.81,350,176.76,384.63,200.3,410a119.9,119.9,0,0,0,67.64,37.31v7.35l12.55-.21v-5.72l2.24.14h4c66.63,0,122.74-59.16,128.44-134.78Q428.46,313.73,441.64,312.77ZM367,205.27c23.2,25,36.18,59.88,36.11,96.55q-13.71.15-27.45-.33c-.16-26.89-9.84-52.47-26.89-70.9A81.42,81.42,0,0,0,294.14,204Q296,187.27,299,170.72c25.42,2.37,49.38,14.49,68,34.55ZM286.59,346.69A33.72,33.72,0,0,1,263,335.52,46.61,46.61,0,0,1,251.27,302c1-23.5,17.65-42.11,37.51-42.11h1.15a33.66,33.66,0,0,1,23.46,11.17,46.63,46.63,0,0,1,11.77,33.51C324.24,328.55,307,347.41,286.59,346.69Zm-8.25-98.07c-21.4,5.2-38.06,26.16-39.44,51.83q-12.69.9-25.44,1.2v-1c1.65-43.48,30.62-78.58,66.76-83.67q-1.38,15.81-1.88,31.62ZM239.42,313a57.8,57.8,0,0,0,14.49,31.06A47.43,47.43,0,0,0,275,357.39q-2.48,15.32-4.1,30.77A70.74,70.74,0,0,1,237,367.5a91,91,0,0,1-23.14-53.3Q226.65,313.89,239.42,313Zm48,46.26h.32c24.67,0,45.61-20.66,49.4-47.82q12.63,1.24,25.35,2c-5,44.33-38.48,78.24-77.53,76.82H283.3c1.05-10.42,2.45-20.7,4.1-31Zm50.2-60.37a58.43,58.43,0,0,0-15.06-36.34,46.2,46.2,0,0,0-31.61-15.13q.52-15.49,1.9-30.94a69,69,0,0,1,46.61,22.64c14.87,16,23.31,38.3,23.61,61.78-8.46-.48-17-1.14-25.44-2Zm-164.21.36c2.73-70.6,52.68-126.79,113-128.87q-2.94,16.85-4.82,33.83c-43.46,4.38-78.69,45.2-80.62,96v1.65q-13.72,0-27.45-.52C173.39,300.63,173.39,300,173.39,299.25Zm36,102.2c-21.27-22.88-34.07-54.17-35.86-87.48,8.21.33,16.44.54,24.67.54h3a104,104,0,0,0,26.57,61.59,83,83,0,0,0,41.91,24.75q-1.34,16.88-1.66,33.78a108,108,0,0,1-58.58-33.27Zm73.7,34.92-2.6-.16q.27-16.74,1.58-33.47l2.33.14h2.76c44.71,0,82.47-38.69,87.85-88.85,7.28.25,14.56.43,21.86.43h5.71c-5.82,69.88-58.23,124-119.42,121.82Z"/></g></g><g id="Grupo_86" data-name="Grupo 86" class="cls-2"><path id="Trazado_341" data-name="Trazado 341" class="cls-3" d="M262.89,45.43s-1.82-1.24-5.2-3.3"/><path id="Trazado_342" data-name="Trazado 342" class="cls-4" d="M251.23,38.34c-35.39-20-145.08-71.07-241.42.8"/><path id="Trazado_343" data-name="Trazado 343" class="cls-3" d="M6.82,41.41C5.21,42.65,3.6,43.94,2,45.25"/><g id="Grupo_85" data-name="Grupo 85"><path id="Trazado_344" data-name="Trazado 344" class="cls-1" d="M261.32,26l-3.61.81,4,17.78-18,2.7.55,3.66,22-3.28Z"/></g></g><g id="Grupo_87" data-name="Grupo 87" class="cls-2"><path id="Trazado_341-2" data-name="Trazado 341-2" class="cls-3" d="M318,596.52s2.05.8,5.81,2"/><path id="Trazado_342-2" data-name="Trazado 342-2" class="cls-4" d="M331,600.81c39,11.55,157.34,36.6,235-55.09"/><path id="Trazado_343-2" data-name="Trazado 343-2" class="cls-3" d="M568.45,542.83c1.28-1.58,2.56-3.19,3.82-4.83"/><g id="Grupo_85-2" data-name="Grupo 85-2"><path id="Trazado_344-2" data-name="Trazado 344-2" class="cls-1" d="M323.92,615.07l3.34-1.6L319.35,597l17-6.69L335,586.91l-20.66,8.14Z"/></g></g></g></g></svg>