<svg xmlns="http://www.w3.org/2000/svg" viewBox="0 0 170.62 170.8"><defs><style>.cls-1{fill:#686caa;}</style></defs><g id="Capa_2" data-name="Capa 2"><g id="Capa_4" data-name="Capa 4"><path class="cls-1" d="M170.62,91.68l-.52-7q-7,.51-14,.73c0-22.15-7.91-43.3-22-58.48C122.7,14.67,108,7.18,92.36,5.56c.28-1.36.54-2.72.83-4.08L86.35,0q-.55,2.61-1.06,5.23c-37.91.37-69.6,35-71.25,78.65,0,.35,0,.7,0,1.06Q7.36,84.52.72,83.84l-.72,7c4.68.48,9.39.84,14.1,1.13,1,20.48,8.78,39.79,21.91,53.92A66.89,66.89,0,0,0,73.74,166.7c0,1.37,0,2.74,0,4.1l7-.12c0-1.06,0-2.13,0-3.19l1.25.08c.74,0,1.49,0,2.23,0,37.15,0,68.46-33,71.64-75.18Q163.27,92.22,170.62,91.68ZM129,31.72c12.94,13.92,20.18,33.4,20.14,53.85q-7.65.09-15.31-.18c-.09-15-5.49-29.27-15-39.55A45.4,45.4,0,0,0,88.35,31q1.05-9.32,2.7-18.55C105.23,13.77,118.59,20.53,129,31.72ZM84.14,110.6A18.81,18.81,0,0,1,71,104.37a26,26,0,0,1-6.56-18.68C65,72.58,74.28,62.2,85.36,62.2H86a18.79,18.79,0,0,1,13.09,6.23,26,26,0,0,1,6.56,18.69C105.14,100.48,95.5,111,84.14,110.6Zm-4.6-54.7c-11.94,2.9-21.23,14.59-22,28.91q-7.08.5-14.19.67c0-.18,0-.36,0-.55.92-24.25,17.08-43.83,37.24-46.67Q79.82,47.08,79.54,55.9ZM57.83,91.81a32.25,32.25,0,0,0,8.08,17.32,26.47,26.47,0,0,0,11.76,7.44q-1.38,8.54-2.29,17.16a39.47,39.47,0,0,1-18.9-11.52A50.79,50.79,0,0,1,43.57,92.48Q50.71,92.3,57.83,91.81Zm26.76,25.8h.18c13.76,0,25.44-11.52,27.55-26.67q7.05.69,14.14,1.09c-2.77,24.73-21.46,43.64-43.24,42.85l-.92,0C82.89,129.07,83.67,123.33,84.59,117.61Zm28-33.67a32.62,32.62,0,0,0-8.4-20.27,25.77,25.77,0,0,0-17.63-8.44q.29-8.64,1.06-17.26a38.49,38.49,0,0,1,26,12.63c8.29,8.93,13,21.36,13.17,34.46C122.07,84.79,117.32,84.42,112.6,83.94ZM21,84.14C22.52,44.76,50.38,13.42,84,12.26q-1.64,9.39-2.69,18.87C57.07,33.57,37.42,56.34,36.34,84.67c0,.31,0,.61,0,.92q-7.65,0-15.31-.29C21,84.91,21,84.53,21,84.14Zm20.09,57c-11.86-12.76-19-30.21-20-48.79,4.58.18,9.17.3,13.76.3h1.68A58,58,0,0,0,51.35,127a46.28,46.28,0,0,0,23.38,13.81q-.75,9.41-.93,18.84A60.19,60.19,0,0,1,41.13,141.09Zm41.11,19.48-1.45-.09q.15-9.34.88-18.67l1.3.08c.51,0,1,0,1.54,0,24.94,0,46-21.58,49-49.56,4.06.14,8.12.24,12.19.24l3.19,0C145.6,131.6,116.37,161.77,82.24,160.57Z"/></g></g></svg>