<svg xmlns="http://www.w3.org/2000/svg" viewBox="0 0 908.63 1511.6"><defs><style>.cls-1{opacity:0.1;}.cls-2{fill:#686cab;}</style></defs><g id="Capa_2" data-name="Capa 2"><g id="Capa_1-2" data-name="Capa 1"><g class="cls-1"><path id="Trazado_1" data-name="Trazado 1" class="cls-2" d="M857.3,231.38c-4.54,123.91-92.39,221.24-196.17,217.42S476.81,341.44,481.32,217.51,573.68-3.68,677.5.11,861.85,107.48,857.3,231.38Z"/><path id="Trazado_6" data-name="Trazado 6" class="cls-2" d="M292.5,731.36S219,710,154.32,937.71c0,0-61.76,215.93-61.76,323.72,0,0,8.84,124-16.18,141.76a105.14,105.14,0,0,0-16.17,98.91s36.75,34,82.33-26.58c0,0,73.5-51.67,102.9-308.59,0,0,36.77-292.34,210.24-321.86,0,0,88.2-29.53,261.7-16.26a315.47,315.47,0,0,0,172-44.29s32.34-35.44-14.7-60.54c0,0-32.34-14.76-175,8.87A1779.14,1779.14,0,0,1,292.5,731.36Z"/><path class="cls-2" d="M908.63,541.17c-7.83,1.2-16.66,2.35-26.61,3.37a367.76,367.76,0,0,0-144.08,20.07s-138.19,24.95-374.89-20.07a1236.45,1236.45,0,0,1-289.61-81.9s-100-15.28-66.64,81.92c0,0,107.8,126.75,613.55,122.81,0,0,154-1.49,288.28-39.9Z"/></g></g></g></svg>