<svg xmlns="http://www.w3.org/2000/svg" viewBox="0 0 755.64 1386.1"><defs><style>.cls-1{opacity:0.15;}.cls-2{fill:#f0a9b6;}</style></defs><g id="Capa_2" data-name="Capa 2"><g id="Capa_5" data-name="Capa 5"><g class="cls-1"><path class="cls-2" d="M0,339.12c94.23-7.29,169.36-76.2,172.61-162.8C176,85.9,99.64,9,0,0Z"/><path class="cls-2" d="M0,597c44.53-13.8,88.8-22.4,88.8-22.4,45.12-18.26,108.78-36.52,108.78-36.52C509.63,410.24,602,256,602,256c67.74-60.86,24.61-73,24.61-73-53.4-34.48-133.42,34.49-133.42,34.49C297.05,355,74.89,441.13,0,468.09Z"/><path class="cls-2" d="M712.77,1126.43,606,955.28S503.39,775.43,487,704.42c0,0-43.72-138-188.16-127.81,0,0-42.16-10.14-126.15,42.6,0,0-84.48,38.94-172.68,75.24v96.21l2.52-1S209.9,704.4,310.41,755.13c0,0,49.3,0,84.17,99.42,0,0,78,166.36,145.74,227.25,0,0,82.1,133.89,108.82,204.89,0,0,20.53,87.26,63.63,99.41C712.77,1386.1,809.23,1374,712.77,1126.43Z"/></g></g></g></svg>