<svg xmlns="http://www.w3.org/2000/svg" viewBox="0 0 56.03 56.03"><defs><style>.cls-1,.cls-2{fill:#f4b8c2;}.cls-2{opacity:0.4;}.cls-3{fill:#fff;}</style></defs><g id="Capa_2" data-name="Capa 2"><g id="Capa_1-2" data-name="Capa 1"><path id="Trazado_169" data-name="Trazado 169" class="cls-1" d="M.55,33.08,8.63,7.91A11.39,11.39,0,0,1,23,.55h0L48.12,8.63A11.38,11.38,0,0,1,55.48,23h0L47.4,48.12a11.37,11.37,0,0,1-14.32,7.36h0L7.91,47.4A11.38,11.38,0,0,1,.55,33.08Z"/><path id="Trazado_171" data-name="Trazado 171" class="cls-2" d="M15.51,3.42H41.94A11.39,11.39,0,0,1,53.33,14.81h0V41.24A11.39,11.39,0,0,1,41.94,52.63H15.51A11.39,11.39,0,0,1,4.12,41.24h0V14.81A11.39,11.39,0,0,1,15.51,3.42Z"/><g id="Capa_2-3" data-name="Capa 2-3"><g id="Capa_1-3" data-name="Capa 1-3"><path id="Trazado_166" data-name="Trazado 166" class="cls-3" d="M44.79,18.05A13.2,13.2,0,0,1,41,19.1a6.61,6.61,0,0,0,2.9-3.65,13.18,13.18,0,0,1-4.19,1.6,6.59,6.59,0,0,0-11.38,4.52,6.26,6.26,0,0,0,.18,1.49,18.65,18.65,0,0,1-13.57-6.89A6.6,6.6,0,0,0,17,25a6.61,6.61,0,0,1-3-.84v.09a6.57,6.57,0,0,0,5.28,6.45,6.41,6.41,0,0,1-1.74.24,6.33,6.33,0,0,1-1.23-.12,6.58,6.58,0,0,0,6.15,4.57,13.23,13.23,0,0,1-8.19,2.83,13.63,13.63,0,0,1-1.56-.11A18.73,18.73,0,0,0,41.56,22.31v-.83a13.54,13.54,0,0,0,3.29-3.42Z"/></g></g></g></g></svg>