<svg xmlns="http://www.w3.org/2000/svg" viewBox="0 0 147.01 170.8"><defs><style>.cls-1{fill:#686caa;}</style></defs><g id="Capa_2" data-name="Capa 2"><g id="Capa_4" data-name="Capa 4"><path class="cls-1" d="M131.17,110.12A36.17,36.17,0,0,0,100.9,93.58a91.56,91.56,0,0,1-26.47-4.19l-5.32-1.47c-10-2.78-20.35-5.65-25,2.21a10.87,10.87,0,0,0-1.21,9.43c1.58,4.31,6,7.82,12.9,10.16,3,1.07,6,2,9.09,3l1.26.39H59.2c-14.4,0-18.37-3.19-22.76-8A104.09,104.09,0,0,1,26,89.64c-1.83-14-4.21-24.23-9.81-28.32A15.52,15.52,0,0,0,3.73,58.14,5,5,0,0,0,.37,61.3c-.66,2-.4,6.17.48,16.84.36,4.41.69,8.54.69,10.66,0,6,4.81,15.54,9.05,23.91L12,115.54c3.19,6.44,12.07,21.76,25.57,24.89a240.55,240.55,0,0,0,32.18,4l6.11.46c7,.71,8.19,3.2,8.29,3.44a2.61,2.61,0,0,0,2.53,2.35h48.74a2.67,2.67,0,0,0,2.56-2.62C138,124.25,136,117.37,131.17,110.12Zm-51,6.16c.32-1.19.16-2.91-2.53-4.32a63,63,0,0,0-11.25-4.18l-.34-.11c-2.56-.8-5.46-1.71-8.64-2.79-5.19-1.8-8.72-4.34-9.67-6.93a4.86,4.86,0,0,1,.7-4.43c2.72-4.54,11.18-2.21,19.44.08l5.28,1.46a95.87,95.87,0,0,0,27.57,4.38h.15A31.32,31.32,0,0,1,127,113.36c3.5,5.13,5.65,9.87,5.71,31.82H88.41c-1.37-2.39-4.6-5.11-12.17-5.51l-6.15-.51a239.64,239.64,0,0,1-31.5-3.89c-11.33-2.63-19.24-16.34-22.12-22.11L15,110.31c-3.15-6.21-8.44-16.62-8.44-21.1,0-2.37-.31-6.45-.7-11.2a110.38,110.38,0,0,1-.71-14.19,11,11,0,0,1,8,2.44c4.57,3.22,6.39,14.64,7.74,25.09a2.81,2.81,0,0,0,.33,1,118,118,0,0,0,11.41,16.89c5.17,5.66,10.1,9.67,26.55,9.67h6.66C77.76,119,79.52,118.66,80.17,116.28Z"/><path class="cls-1" d="M86.23,157.92h47c2.63,0,4.76,1.49,4.76,3.33v6.22c0,1.84-2.13,3.33-4.76,3.33h-47c-2.64,0-4.77-1.49-4.77-3.33v-6.22C81.46,159.41,83.59,157.92,86.23,157.92Z"/><polygon class="cls-1" points="28.56 22.33 12.85 22.33 20.7 12.71 28.56 3.1 36.42 12.71 44.28 22.33 28.56 22.33"/><polygon class="cls-1" points="30.6 28.04 48.36 28.04 74.01 73.69 12.85 28.04 30.6 28.04"/><polygon class="cls-1" points="129.25 28.04 111.5 28.04 85.85 73.69 147.01 28.04 129.25 28.04"/><polygon class="cls-1" points="131.16 22.03 115.44 22.03 123.3 12.42 131.16 2.8 139.02 12.42 146.88 22.03 131.16 22.03"/><polygon class="cls-1" points="79.93 22.96 62.17 22.96 71.05 15.29 79.93 7.61 88.81 15.29 97.69 22.96 79.93 22.96"/><polygon class="cls-1" points="79.93 28.3 101.63 28.3 90.78 46.19 79.93 64.08 69.08 46.19 58.23 28.3 79.93 28.3"/><polygon class="cls-1" points="70.67 0.07 56.9 0.04 36.1 0 44.7 10.3 53.3 20.6 65.5 10.34 74.21 3.01 70.67 0.07"/><polygon class="cls-1" points="88.98 0.07 102.74 0.04 123.54 0 114.94 10.3 106.34 20.6 94.15 10.34 85.43 3.01 88.98 0.07"/></g></g></svg>