<svg xmlns="http://www.w3.org/2000/svg" viewBox="0 0 574.27 615.07"><defs><style>.cls-1{opacity:0.2;}.cls-2,.cls-3{fill:none;stroke:#fff;stroke-linecap:round;stroke-linejoin:round;stroke-width:4px;}.cls-3{stroke-dasharray:12.48 7.49;}.cls-4{fill:#fff;}</style></defs><g id="Capa_2" data-name="Capa 2"><g id="Capa_1-2" data-name="Capa 1"><g id="Grupo_86" data-name="Grupo 86" class="cls-1"><path id="Trazado_341" data-name="Trazado 341" class="cls-2" d="M262.89,45.43s-1.82-1.24-5.2-3.3"/><path id="Trazado_342" data-name="Trazado 342" class="cls-3" d="M251.23,38.34c-35.39-20-145.08-71.07-241.42.8"/><path id="Trazado_343" data-name="Trazado 343" class="cls-2" d="M6.82,41.41C5.21,42.65,3.6,43.94,2,45.25"/><g id="Grupo_85" data-name="Grupo 85"><path id="Trazado_344" data-name="Trazado 344" class="cls-4" d="M261.32,26l-3.61.81,4,17.78-18,2.7.55,3.66,22-3.28Z"/></g></g><g id="Grupo_87" data-name="Grupo 87" class="cls-1"><path id="Trazado_341-2" data-name="Trazado 341-2" class="cls-2" d="M318,596.52s2.05.8,5.81,2"/><path id="Trazado_342-2" data-name="Trazado 342-2" class="cls-3" d="M331,600.81c39,11.55,157.34,36.6,235-55.09"/><path id="Trazado_343-2" data-name="Trazado 343-2" class="cls-2" d="M568.45,542.83c1.28-1.58,2.56-3.19,3.82-4.83"/><g id="Grupo_85-2" data-name="Grupo 85-2"><path id="Trazado_344-2" data-name="Trazado 344-2" class="cls-4" d="M323.92,615.07l3.34-1.6L319.35,597l17-6.69L335,586.91l-20.66,8.14Z"/></g></g><g id="Capa_2-2" data-name="Capa 2"><g id="Capa_4" data-name="Capa 4"><path id="Trazado_184" data-name="Trazado 184" class="cls-4" d="M408.68,345.83c-13.82-18.43-37.52-29.58-63-29.65a219,219,0,0,1-55.08-7.51L279.55,306c-20.81-5-42.35-10.13-52,4A17.21,17.21,0,0,0,225,326.9c3.29,7.73,12.48,14,26.84,18.22,6.24,1.91,12.49,3.58,18.92,5.37l2.62.7H258.93c-30,0-38.23-5.72-47.36-14.34a188.36,188.36,0,0,1-21.73-27.74c-3.8-25.09-8.76-43.44-20.41-50.77a36.21,36.21,0,0,0-25.93-5.7,9.91,9.91,0,0,0-7,5.67c-1.37,3.58-.83,11.06,1,30.19.75,7.9,1.44,15.31,1.44,19.11,0,10.76,10,27.86,18.83,42.87l2.93,5.07c6.64,11.55,25.12,39,53.21,44.62a576.47,576.47,0,0,0,67,7.18l12.71.82c14.57,1.27,17,5.74,17.25,6.17.27,2.34,2.53,4.15,5.27,4.21H417.53c2.93-.1,5.27-2.16,5.32-4.7C422.89,371.17,418.73,358.83,408.68,345.83ZM302.56,356.88c.67-2.14.33-5.22-5.26-7.75a145.47,145.47,0,0,0-23.41-7.49l-.71-.2c-5.33-1.43-11.36-3.07-18-5-10.8-3.23-18.14-7.78-20.12-12.43a7.73,7.73,0,0,1,1.46-7.94c5.66-8.14,23.26-4,40.45.14l11,2.62a228.79,228.79,0,0,0,57.37,7.85h.31c21.83,0,42.23,9.33,54.36,25,7.28,9.2,11.75,17.7,11.88,57.05H319.71c-2.85-4.29-9.57-9.16-25.33-9.88l-12.79-.91a576.62,576.62,0,0,1-65.55-7c-23.57-4.71-40-29.29-46-39.64l-3-5.11c-6.56-11.13-17.57-29.79-17.57-37.83,0-4.25-.64-11.56-1.45-20.08a170.5,170.5,0,0,1-1.48-25.44,25.54,25.54,0,0,1,16.65,4.38c9.5,5.77,13.29,26.25,16.1,45a4.57,4.57,0,0,0,.69,1.79,212.07,212.07,0,0,0,23.74,30.28c10.76,10.15,21,17.34,55.25,17.34h13.85C297.55,361.75,301.21,361.14,302.56,356.88Z"/><path id="Trazado_185" data-name="Trazado 185" class="cls-4" d="M315.17,431.53H413c5.47,0,9.9,2.67,9.9,6v11.15c0,3.3-4.43,6-9.9,6h-97.8c-5.49,0-9.92-2.67-9.92-6V437.5C305.25,434.2,309.68,431.53,315.17,431.53Z"/><path id="Trazado_186" data-name="Trazado 186" class="cls-4" d="M195.17,188.44H162.48l16.34-17.25L195.17,154l16.36,17.23,16.35,17.25Z"/><path id="Trazado_187" data-name="Trazado 187" class="cls-4" d="M199.42,198.68h37l53.37,81.84L162.48,198.68Z"/><path id="Trazado_188" data-name="Trazado 188" class="cls-4" d="M404.69,198.68H367.75l-53.37,81.84,127.26-81.84Z"/><path id="Trazado_189" data-name="Trazado 189" class="cls-4" d="M408.66,187.9H376l16.36-17.23,16.35-17.25L425,170.67l16.35,17.23Z"/><path id="Trazado_190" data-name="Trazado 190" class="cls-4" d="M302.06,189.57H265.11l18.47-13.75,18.48-13.77,18.48,13.77L339,189.57Z"/><path id="Trazado_191" data-name="Trazado 191" class="cls-4" d="M302.06,199.14h45.16l-22.58,32.08-22.58,32.07-22.57-32.07-22.58-32.08Z"/><path id="Trazado_192" data-name="Trazado 192" class="cls-4" d="M282.79,148.53l-28.65-.05-43.28-.08,17.9,18.47,17.89,18.47L272,166.94l18.12-13.14Z"/><path id="Trazado_193" data-name="Trazado 193" class="cls-4" d="M320.89,148.53l28.64-.05,43.28-.08-17.9,18.47L357,185.34l-25.37-18.4L313.51,153.8Z"/></g></g></g></g></svg>