<svg xmlns="http://www.w3.org/2000/svg" viewBox="0 0 173.63 170.8"><defs><style>.cls-1{fill:#686caa;}</style></defs><g id="Capa_2" data-name="Capa 2"><g id="Capa_4" data-name="Capa 4"><path class="cls-1" d="M92.51,59.11l-4.13-5.57L82,58.2c-7.34,5.33-19.63,14.25-26.31,19a139.72,139.72,0,0,0-5.22-15.82L44,64c3,7.09,6.13,19.52,6.16,19.64l1.18,4.75,4.14-2.68c3.66-2.38,20.55-14.64,30.65-22Z"/><path class="cls-1" d="M173.62,108.69c-.12-3.55-2.64-6.57-5.31-9.77-3.08-3.69-6.57-7.87-7.1-13.35l-.14-1.46c-1-9.86-1.45-14.8-1.43-21.09,0-7.2-7-21.2-18.47-31.25A56.24,56.24,0,0,0,96.41,17.91l.82,6.85a49.39,49.39,0,0,1,39.28,12.16C147.8,46.84,152.66,59,152.64,63c0,6.63.5,12,1.46,21.77l.14,1.46c.74,7.58,5.32,13.06,8.66,17.07,1.73,2.07,3.68,4.41,3.72,5.6.09,2.74-.73,3.57-1,3.84-1.63,1.65-6.11,1.87-10.28,1.87l-1.55,0-1,1.06c-1.4,1.43-1.4,2.65-1,13.3.15,3.51.36,8.76.2,10.15-2.26,5.29-7.93,5.55-14.05,5.35-.69,0-1.31-.05-1.85-.05-3.1,0-5.75,0-7.89-.08-6.73-.11-9.24-.15-11.15,1.34l-1.33,1v1.67c0,7.45.11,11.64.27,14.07a379.82,379.82,0,0,1-49.34,1c-.36-7.54-.55-14.77-.6-21.91,17.38-.13,31.23-4.86,31.29-10.84,0-2.53-2.43-4.9-6.58-6.82,4.12-1.82,6.57-4.11,6.6-6.62s-2.2-4.67-6-6.54A28,28,0,0,0,93,105.32c.81-4.25,3.62-7.38,6.87-11,4-4.42,8.48-9.44,10-17.49h0a55.08,55.08,0,0,0,1-11q2.83,0,6,0,6,0,13.22-.11l-.11-6.9c-7.67.12-14.28.14-19.77.07A44.13,44.13,0,0,0,99.87,36.65,42.44,42.44,0,0,0,67.88,22c0-8.89.14-16.17.39-21.67l-7-.31c-.26,5.69-.39,13.21-.4,22.41C48.26,24,37.78,29.37,31,38a38.76,38.76,0,0,0-8,20.9C13.62,59,6,59,.24,58.75L0,65.65c3.75.12,8.29.19,13.58.19,2.89,0,6,0,9.33-.06a55.13,55.13,0,0,0,1.28,9.07C26,83,29.12,87,32.12,90.88A36.75,36.75,0,0,1,40,106.65c.18.74.4,1.49.66,2.24-5.76,2-9.32,4.66-9.36,7.68,0,2.54,2.43,4.9,6.6,6.83-4.13,1.82-6.59,4.11-6.61,6.61-.07,5.6,12,10.38,27.79,11.39,0,7.09.23,14.26.57,21.73a423.92,423.92,0,0,1-42.12-4.9L16.36,165a406.13,406.13,0,0,0,67.13,5.77,434,434,0,0,0,70.88-6.16l-1.14-6.81c-10.42,1.71-20.45,3-30.26,4-.12-2.38-.2-6.52-.23-10.6,1.39,0,3.34,0,5.35,0s4.85.08,8,.08c.47,0,1,0,1.62,0,5.42.18,16.71.55,20.89-9.94.56-1.42.55-3.85.19-12.73-.09-2.22-.21-5.16-.24-7.26,4.68-.18,9.16-.93,12.09-3.92C172.74,115.42,173.74,112.44,173.62,108.69ZM46.77,105a43.51,43.51,0,0,0-9.09-18.31C34.91,83.12,32.52,80,31,73.36c-2.77-12.3-.86-23.07,5.51-31.15S53.69,29.28,66.68,28.88l1.09,0A35.49,35.49,0,0,1,94.56,41.15,37.51,37.51,0,0,1,103.43,61l-.17,4.62h.53a47.72,47.72,0,0,1-.82,9.93c-1.15,6.16-4.64,10-8.34,14.16s-7.34,8.17-8.51,14.3a20.38,20.38,0,0,1-1.31,4.29,80.89,80.89,0,0,0-20.36-2.61,86.78,86.78,0,0,0-17,1.4A22.11,22.11,0,0,1,46.77,105Z"/></g></g></svg>