<svg xmlns="http://www.w3.org/2000/svg" viewBox="0 0 574.27 615.07"><defs><style>.cls-1,.cls-4,.cls-5{fill:none;}.cls-1,.cls-2,.cls-4,.cls-5{stroke:#fff;}.cls-1,.cls-2{stroke-miterlimit:10;}.cls-1{stroke-width:12.6px;}.cls-2,.cls-6{fill:#fff;}.cls-3{opacity:0.2;}.cls-4,.cls-5{stroke-linecap:round;stroke-linejoin:round;stroke-width:4px;}.cls-5{stroke-dasharray:12.48 7.49;}</style></defs><g id="Capa_2" data-name="Capa 2"><g id="Capa_1-2" data-name="Capa 1"><g id="Componente_9_1" data-name="Componente 9 1"><path id="Trazado_52" data-name="Trazado 52" class="cls-1" d="M369.44,261.93c-14,.21-33.19.36-47.89-.15"/><path id="Trazado_53" data-name="Trazado 53" class="cls-1" d="M183.63,261.93c-14,.21-33.19.36-47.89-.15"/><path id="Trazado_54" data-name="Trazado 54" class="cls-1" d="M251.38,197.33c0-14.31,0-33.92.7-48.93"/><path id="Trazado_55" data-name="Trazado 55" class="cls-1" d="M412.27,442.76c-87,14.45-160,15.19-246.27.72"/><path id="Trazado_56" data-name="Trazado 56" class="cls-1" d="M298.27,251.05c-8.74,6.39-58,42.94-66.41,48.46,0,0-5.7-23.27-11.39-36.83"/><path id="Trazado_57" data-name="Trazado 57" class="cls-1" d="M327,287.39c-4.53,24.67-26.57,32-30.32,52-4.59,24.48-25,32.29-39.26,31.77-18.86-.69-38.22-6.88-43.85-29.69-7.94-32.17-22.23-30.17-28.38-58-11.39-51.42,19.71-87.36,70.11-88.94C298.19,193.25,337.09,232.44,327,287.39Z"/><path id="Trazado_58" data-name="Trazado 58" class="cls-2" d="M251.05,382.3c-32.84-.38-59.36-9.85-59.24-21.16S218.66,341,251.5,341.32s59.34,9.85,59.23,21.17S283.88,382.67,251.05,382.3Z"/><path id="Trazado_59" data-name="Trazado 59" class="cls-2" d="M251,406.86c-32.84-.37-59.36-9.84-59.24-21.15s26.85-20.18,59.69-19.82,59.34,9.85,59.23,21.16S283.85,407.23,251,406.86Z"/><path id="Trazado_60" data-name="Trazado 60" class="cls-1" d="M309.74,187.11c71.15-8.46,106.8,57.74,106.74,76.15,0,12.37.95,22.1,2.85,41.84,2,20.67,22,31.61,22.3,41.83.47,15.05-10.44,16.94-26.57,16.94-1.71,0,1.38,36.91,0,40.42-6.64,16.93-26.57,14.11-34.63,14.11-19.31,0-28-.95-30.36.94,0,0,0,27.73.94,29.61"/><path id="Trazado_61" data-name="Trazado 61" class="cls-1" d="M249.54,454.62c-1-19.15-1.5-37.62-1.47-55.66"/></g><g id="Grupo_86" data-name="Grupo 86" class="cls-3"><path id="Trazado_341" data-name="Trazado 341" class="cls-4" d="M262.89,45.43s-1.82-1.24-5.2-3.3"/><path id="Trazado_342" data-name="Trazado 342" class="cls-5" d="M251.23,38.34c-35.39-20-145.08-71.07-241.42.8"/><path id="Trazado_343" data-name="Trazado 343" class="cls-4" d="M6.82,41.41C5.21,42.65,3.6,43.94,2,45.25"/><g id="Grupo_85" data-name="Grupo 85"><path id="Trazado_344" data-name="Trazado 344" class="cls-6" d="M261.32,26l-3.61.81,4,17.78-18,2.7.55,3.66,22-3.28Z"/></g></g><g id="Grupo_87" data-name="Grupo 87" class="cls-3"><path id="Trazado_341-2" data-name="Trazado 341-2" class="cls-4" d="M318,596.52s2.05.8,5.81,2"/><path id="Trazado_342-2" data-name="Trazado 342-2" class="cls-5" d="M331,600.81c39,11.55,157.34,36.6,235-55.09"/><path id="Trazado_343-2" data-name="Trazado 343-2" class="cls-4" d="M568.45,542.83c1.28-1.58,2.56-3.19,3.82-4.83"/><g id="Grupo_85-2" data-name="Grupo 85-2"><path id="Trazado_344-2" data-name="Trazado 344-2" class="cls-6" d="M323.92,615.07l3.34-1.6L319.35,597l17-6.69L335,586.91l-20.66,8.14Z"/></g></g></g></g></svg>